<?xml version="1.0" encoding="utf-8"?>
<!-- Generator: Adobe Illustrator 18.0.0, SVG Export Plug-In . SVG Version: 6.00 Build 0)  -->
<!DOCTYPE svg PUBLIC "-//W3C//DTD SVG 1.1//EN" "http://www.w3.org/Graphics/SVG/1.1/DTD/svg11.dtd">
<svg version="1.1" id="Layer_1" xmlns="http://www.w3.org/2000/svg" xmlns:xlink="http://www.w3.org/1999/xlink" x="0px" y="0px"
	 viewBox="0 0 1400 351" enable-background="new 0 0 1400 351" xml:space="preserve">
<path fill="#9784D3" d="M1024.3,284.5l-6-25.7c-1.5-5.8-0.1-12,3.8-16.5c12.6-14.6,38.4-33.1,38.4-33.1v0l3.1-0.7l2.6-0.7l4.9-4.1
	c0,0,3.9-2.8,11.7-4l7-2.5c0,0,11.3,11.7,5.6,30.4c0,0,4.5,23.9,8.6,30c0,0,11.5,6.8,11.5,12.1c0,0-3.5,7.6-9.6,7.7l-13.8-15.8
	c0,0-11.2-9.3-19.1-26.7c0,0-27.8,6.3-38.2,19.4c0,0,4.6,13.7,1.4,29.7C1036.4,284,1028.8,286.6,1024.3,284.5z"/>
<path fill="none" stroke="#443355" stroke-width="2" stroke-linecap="round" stroke-linejoin="round" stroke-miterlimit="10" d="
	M1046.6,133.3c0,0-9.8-27.3-11.2-39.3c-0.2-1.5,0-3.1,0.4-4.6l8-28.7"/>
<path fill="none" stroke="#443355" stroke-width="2" stroke-linecap="round" stroke-linejoin="round" stroke-miterlimit="10" d="
	M1049.8,64.1c0,0-1.4,13.7-3,25c-0.1,1,0.1,2,0.6,2.9l3.7,6"/>
<g>
	<g>
		<path fill="none" stroke="#CFCAD3" stroke-width="1.5" stroke-linecap="round" stroke-linejoin="round" d="M1040.5,53.4
			c-0.4-0.6-0.7-1.1-1.1-1.7"/>
		
			<path fill="none" stroke="#CFCAD3" stroke-width="1.5" stroke-linecap="round" stroke-linejoin="round" stroke-dasharray="3.6469,3.6469" d="
			M1037.7,48.5c-3-5.8-4.9-12.3-5.4-19.2"/>
		<path fill="none" stroke="#CFCAD3" stroke-width="1.5" stroke-linecap="round" stroke-linejoin="round" d="M1032.2,27.5
			c0-0.7,0-1.3,0-2"/>
	</g>
</g>
<g>
	<g>
		<path fill="none" stroke="#CFCAD3" stroke-width="1.5" stroke-linecap="round" stroke-linejoin="round" d="M1072.4,55.8
			c-0.6-0.2-1.3-0.5-1.9-0.7"/>
		
			<path fill="none" stroke="#CFCAD3" stroke-width="1.5" stroke-linecap="round" stroke-linejoin="round" stroke-dasharray="4.335,4.335" d="
			M1066.7,53.2c-9.5-5.6-15.9-15.9-15.9-27.7c0-2.6,0.3-5.2,0.9-7.7"/>
		<path fill="none" stroke="#CFCAD3" stroke-width="1.5" stroke-linecap="round" stroke-linejoin="round" d="M1052.3,15.7
			c0.2-0.6,0.4-1.3,0.7-1.9"/>
	</g>
</g>
<g>
	<g>
		<path fill="none" stroke="#CFCAD3" stroke-width="1.5" stroke-linecap="round" stroke-linejoin="round" d="M1077.6,37.8
			c-0.6-0.3-1.2-0.6-1.8-0.9"/>
		
			<path fill="none" stroke="#CFCAD3" stroke-width="1.5" stroke-linecap="round" stroke-linejoin="round" stroke-dasharray="4.1169,4.1169" d="
			M1072.6,34.3c-2-2.3-3.3-5.4-3.3-8.8c0-7.4,6-13.4,13.4-13.4c7.4,0,13.4,6,13.4,13.4c0,4.3-2.1,8.2-5.2,10.6"/>
		<path fill="none" stroke="#CFCAD3" stroke-width="1.5" stroke-linecap="round" stroke-linejoin="round" d="M1089.2,37.3
			c-0.6,0.3-1.2,0.6-1.8,0.8"/>
	</g>
</g>
<path fill="none" stroke="#EA3BF4" stroke-width="2" stroke-linecap="round" stroke-linejoin="round" stroke-miterlimit="10" d="
	M1112.8,33c-3.2,11.8-11,21.8-21.4,27.8"/>
<path fill="none" stroke="#EA3BF4" stroke-width="2" stroke-linecap="round" stroke-linejoin="round" stroke-miterlimit="10" d="
	M1076.9,66.4c-2.9,0.6-5.9,0.9-8.9,0.9c-21.5,0-39.6-14.6-45-34.5"/>
<path fill="#E074E8" stroke="#E074E8" stroke-width="1.5" stroke-linecap="round" stroke-linejoin="round" stroke-miterlimit="10" d="
	M1074.1,94.2l-5.9-2.9c-0.3-0.1-0.6-0.2-1-0.3c-1.5-0.4-3.1-0.5-4.6-0.3c0,0,6,5,9.8,11.1L1074.1,94.2z"/>
<path fill="none" stroke="#BFB9C5" stroke-width="1.5" stroke-linecap="round" stroke-linejoin="round" stroke-miterlimit="10" d="
	M367.3,319.9l9-0.5c2.8-0.2,5.6-0.1,8.4,0.2l10.7,1.2c1.4,0.2,2.9,0,4.2-0.6c1.4-0.6,2.7-1.8,2.5-3.8"/>
<path fill="none" stroke="#BFB9C5" stroke-width="1.5" stroke-linecap="round" stroke-linejoin="round" stroke-miterlimit="10" d="
	M334.3,321.8h3.6c1.3,0,2.6-0.8,3.2-2l0,0c0.6-1.2,1.8-2,3.2-2h0.1c1.2,0,2.3,0.8,2.7,2l0,0c0.4,1.2,1.5,2,2.7,2h2.7"/>
<path fill="#C3ACF7" d="M146.1,167.7c-3.3,3.6-7.7,5.1-12,5.7c-6.7,0.8-13.5-0.8-19.3-4.3l-8.7-5.3c-1.2-0.7-2.6-1.1-3.9-1.1h-2.1
	c-1.6,0-2.9-1.4-2.7-3.1v0c0.1-0.5,0.3-1,0.6-1.3l0.9-1.1c1.2-1.5,2.1-3.3,2.5-5.3c5.1-25.1-2.4-34-2.4-34
	c-2.6,3.5-3.9,15.8-3.9,15.8l2.3,0.8l-0.7,9.2c-7.7,2-13.3-1-13.3-1c-1-6-0.2-21.2,0.3-30.1c0.3-4.4,1.8-8.6,4.5-12.1l0,0
	c4.5-6.1,10.2-11.2,16.6-15.1c6.6-4,10.3-6.3,10.3-6.3l0,3.8c0,2.3,1.2,4.3,3.2,5.4l4.1,2.3l3.7-1.9c2.2-1.1,3.5-3.3,3.5-5.8v-2.8
	l20.8,12c3.8,2.2,6.2,6.3,6.2,10.7v0.1c0,2.2,0.5,4.3,1.4,6.3c2.5,5.3,7.5,17.3,7.2,27.7c0,0-11.3-0.8-15.9,3.8l-1.3-6.4l1.1-2.7
	l-3.1-11.1c0,0-0.5,20,1.5,33.5l0.7,3.8l-0.4,7.3L146.1,167.7z"/>
<g>
	<path fill="#C3ACF7" d="M572.6,205.9c0,0,12-4.6,33.9-4.2c3.7,0.1,7.5,0.4,11.2,0.8c3.8,0.4,11,1,18.7,0.3l3.3,34.6l-0.6,16
		l-0.4,8.8c0,0-7.1,1.2-19.5-0.9l-8.3-2l-14.2-6l-7.5-2l-5,0.3l-2.1,0.5l-1.9-12.3l-2-18.9l-1-6.8L572.6,205.9z"/>
	<path fill="#FFFFFF" stroke="#443356" stroke-width="2" stroke-miterlimit="10" d="M777.6,125.5l-3.2,4
		c-7.7,9.6-12.1,21.6-11.8,33.9c0,0.6,0,1.3,0.1,1.9l1.6,29c0.6,11.2-1.2,22.4-5.3,32.9c-2.4,6-5.1,13.1-7.3,19.9
		c-4.2,12.9-1.6,27.1,6.6,37.9l0,0l1.8,3.9l3.2,1"/>
	<g>
		<path fill="#DF74E8" d="M842.6,92.3h-2.1c-4.4,0-8-3.6-8-8c0-2.1-0.8-4.2-2.4-5.7l-5.4-5.4l-2.6-3.5l-4.4-14.8l-12-10.8l-20.9-2.3
			l-4.4,4.4c-5.4,5.4-8.4,12.7-8.4,20.4v6.2l1.5,9.9l8.8,1.5l7.7,9.4l-0.2,10.8l35,12.6l19.2,4.5l4.3-2.3c5-2.1,8.5-7.1,8.5-12.9v0
			C856.6,98.6,850.3,92.3,842.6,92.3z"/>
		<path fill="#C659D1" d="M789.7,104.3l35,12.6l19.2,4.5l4.3-2.3c5-2.1,8.5-7.1,8.5-12.9l0,0c0-7.8-6.3-14-14-14h-2.1
			c-4.4,0-8-3.6-8-8c0-2.1-0.8-4.2-2.4-5.7l-5.4-5.4L803,80.9L789.7,104.3z"/>
	</g>
	<path fill="#FFFFFF" stroke="#443356" stroke-width="2" stroke-linecap="round" stroke-miterlimit="10" d="M835,151.3
		c4.3,0.7,8.3,3,11,6.4l15,18.8c1.9,2.3,2.7,5.3,2.3,8.3c-0.3,2.1-1.1,4-2.5,5.6c-2.4,2.9-4.3,6.1-5.6,9.6l-8.7,23.3
		c-1.1,4.3-4,7.3-6.1,8.9c-0.3,0.2-0.6,0.4-1,0.6c1.4,3.1,3.7,7,7.3,10c18.7-15.4,30-40.3,34.5-51.9c1.9-4.8,0.4-10-0.4-15.1
		c-2.9-18-15.6-35.3-25.6-46.6c-7.2-8.1-17.5-12.8-28.3-12.8c-1.7,0-3.3-0.7-4.4-1.9c-2.9-3-8.5-10.1-6.4-23.3L788,96.7l-2.9,4.4
		l-7.5,24.4"/>
	<g>
		<path fill="#E9C4F1" stroke="#443356" stroke-width="2" stroke-linejoin="round" stroke-miterlimit="10" d="M838.1,232.8l0-0.8
			c-0.4-6.9-2.4-13.6-5.4-19.9c-6.7-13.8-2.6-27,2.1-35.7l-0.1,0.2l0,0c-5.6,0-10.5-3.8-12-9.2c-3.4-12.9-6.5-36.2,10.3-50.3
			l-8.1-0.8c0,0-10.7,7-17.2,26.3c-1.6,4.8-5.8,8.4-10.8,9.3c-0.2,0-0.3,0.1-0.5,0.1c-8.8,1.5-16.9-5.6-16.3-14.5
			c0.1-1.6,0.3-3.5,0.6-5.5l2.7-10.3l-5.3,4.3l0,0c-0.4,1.4-0.6,2.8-0.9,4.2c-0.8,4.5-3,16.1-6.9,21.2c-2.4,3.1-3.9,6.9-3.7,10.8
			c0.2,3.3,1.2,7.6,4.4,11.4c3.7,4.5,5.9,10,6.3,15.8c0.5,9.1-0.4,21.9-7.6,32.4c-0.7,1-1.1,2.2-1.1,3.5v0c0,1.8,0.8,3.5,2.2,4.7
			c5.2,4.5,17,14.1,38.9,14.4l14.4-2.7C829.5,240.5,834.6,237.4,838.1,232.8L838.1,232.8z"/>
	</g>
	<path fill="none" stroke="#443356" stroke-width="2" stroke-miterlimit="10" d="M582,96.6c0,2.3,0.9,6.7,0.3,9
		c-1.2,5.1-4.5,9.4-8.9,12.2l-2.2,1.4l-5.9,3.8l0,0c-7.1,0-13.5,4.4-15.9,11.1c-2.5,6.9-4,16.4,0.3,26.4c0,0-4.4,13.3-4.1,27.2
		c0.2,5.7,1.8,11.3,4.8,16.2l0,0v0c-0.7,4.3-0.3,8.8,1.2,12.9l10.6,30.1c1.4,4,2.6,8,3.5,12.1l3.9,12.6"/>
	<path fill="none" stroke="#443356" stroke-width="2" stroke-linecap="round" stroke-linejoin="round" stroke-miterlimit="10" d="
		M583.8,151.8c0,0-1.4,5.2-9,11.8l1.4,10.4c0.6,4.6,0.3,9.2-1.1,13.8l-4.6,15.7l2.1,2.4c3,3.4,4.8,7.4,5.2,11.4l3.3,31.7
		c0.5,4.8,1.9,9.5,4.1,14l2.4,5"/>
	<path fill="#443356" d="M578.9,279.9c-4.1,0-7.5-3.3-7.5-7.5c0-4.1,3.3-7.5,7.5-7.5s7.5,3.3,7.5,7.5
		C586.3,276.6,583,279.9,578.9,279.9z M578.9,268.1c-2.4,0-4.3,1.9-4.3,4.3c0,2.4,1.9,4.3,4.3,4.3c2.4,0,4.3-1.9,4.3-4.3
		C583.2,270.1,581.3,268.1,578.9,268.1z"/>
	<g>
		<path fill="#443356" d="M584.8,272.5c0,1-0.3,2-0.7,2.8l4.5-1.5c0.7-0.2,1-1,0.8-1.7l-2-5.7c-0.2-0.7-1-1-1.7-0.8l-4.5,1.5
			C583.3,268,584.8,270.1,584.8,272.5z"/>
		<path fill="#443356" d="M573,272.5c0-1,0.3-2,0.7-2.8l-4.4,1.5c-0.7,0.2-1.1,1-0.9,1.8l1.9,5.6c0.2,0.7,1,1.1,1.8,0.9l4.4-1.5
			C574.4,277,573,274.9,573,272.5z"/>
	</g>
	<path fill="none" stroke="#443356" stroke-width="2" stroke-miterlimit="10" d="M577,175.8c11.6-7.6,16.9-20.7,12.8-32.9
		c-2.6-7.6-8-15.9-18.6-23.8"/>
	<path fill="none" stroke="#443356" stroke-width="2" stroke-miterlimit="10" d="M576.8,115.1c0,0,19.7,11.6,27.2,27.6
		c2.1,4.5,6.7,7.4,11.7,7c0.2,0,0.4,0,0.6-0.1c7.6-0.7,12.6-8.2,10.3-15.4c-1.7-5.4-4.8-12.2-10.3-19.2"/>
	<path fill="none" stroke="#443356" stroke-width="2" stroke-miterlimit="10" d="M624.9,119.9c0,0,11.4,8.1,13.5,33.5l1,18.2
		c0.3,5.2-0.2,10.5-1.5,15.6v0c-1.5,5.7-1.9,11.6-1.4,17.5l2.8,30.4c0.3,3.7,0.4,7.4,0.2,11l-0.7,11.4c-0.2,3-2.7,5.3-5.6,5.3l0,0
		c-10,0-19.8-2.1-28.9-6.1l-8.5-3.7c-4.3-1.9-9.2-2.1-13.6-0.7"/>
	<path fill="#FFFFFF" d="M604.9,245.2c-0.1,0-0.2,0-0.3-0.1l-2.7-1.2c-3.5-1.5-7.1-2.3-10.8-2.3c-1.6,0-3.1,0.1-4.7,0.4
		c-0.4,0.1-0.8-0.2-0.9-0.6c-0.1-0.4,0.2-0.8,0.6-0.9c1.6-0.3,3.3-0.4,4.9-0.4c4,0,7.8,0.8,11.5,2.4l2.7,1.2c0.4,0.2,0.6,0.6,0.4,1
		C605.5,245,605.2,245.2,604.9,245.2z"/>
	<path fill="none" stroke="#443356" stroke-width="2" stroke-linecap="round" stroke-linejoin="round" stroke-miterlimit="10" d="
		M609.2,98l0.5,6c0.7,4.3,3.2,8.2,6.9,10.6l12.6,8.1l0,0c11.8,8,18.8,21.6,17.9,35.9c-0.2,3-0.7,6.2-1.6,9.5c0,0,5.6,16,0,35.4
		c-0.5,1.7-0.4,3.5,0.2,5.2c2.5,6.7,8,21.8,22.1,29.5c0.5,0.3,1.1,0.3,1.6,0.1v0c4.1-1.6,8.5,0,12.8,0.6c3.9,0.6,9.4,0.7,15.3-1.3v1
		c0,3.1-2.1,5.8-5.1,6.4c-1.9,0.4-4.4,0.8-7.7,0.9c0,0,12.8,5.7,15.3,25.8h-0.5c-2.4,0-4.5-1.4-5.6-3.5c-1.7-3.5-4.5-8.6-7.8-10.8
		c0,0,6.9,8.3,4.2,21.2l-2.1-1.3c-1.6-1-2.7-2.7-2.7-4.6c0-2.2-0.5-5.5-2.8-9.7c0,0,0,8.4-2.4,12.5l-0.1,0c-2-0.4-3.3-2.2-3.1-4.3
		c0.3-2.2,0.1-5.1-1.6-8.2c0,0-0.7,4.9-4.2,9.7l0,0c-1.3,0-2.2-1.1-2-2.4c0.7-4.2,0.9-13.1-8.4-18.8L639.4,235"/>
	<path fill="none" stroke="#000000" stroke-width="1.5" stroke-linecap="round" stroke-linejoin="round" stroke-miterlimit="10" d="
		M683.7,265.1c-0.4-1.9-1.4-3.8-3-5.7"/>
	<path opacity="0.34" fill="none" stroke="#443356" stroke-width="1.5" stroke-linecap="round" stroke-miterlimit="10" d="
		M675.3,261.4c0,0,10.2-5.2,11.4-8"/>
	<path fill="#FFFFFF" stroke="#443356" stroke-width="2" stroke-linecap="round" stroke-miterlimit="10" d="M636.8,262.1v5.8
		c0,0,8.6,20.5,7.9,51.7"/>
	<path fill="#FFFFFF" stroke="#443356" stroke-width="2" stroke-linecap="round" stroke-miterlimit="10" d="M566.3,262.1
		c0,0-3.6,28.7-1.9,57.5"/>
	<path fill="#FFFFFF" stroke="#443356" stroke-width="1.5" stroke-linecap="round" stroke-miterlimit="10" d="M623.2,302.8
		L623.2,302.8c-3.3,2.2-5.2,5.9-5.2,9.8v7"/>
	<path opacity="0.34" fill="#443356" d="M606.7,292.2c-0.2,0-0.4,0-0.6-0.1c-0.6-0.3-0.9-1.1-0.6-1.7l2.6-5.4c1.2-2.5,1-5.3-0.7-7.7
		c-1.3-1.9-2-4.1-2-6.4v-4.7c0-0.7,0.6-1.3,1.3-1.3c0.7,0,1.3,0.6,1.3,1.3v4.7c0,1.7,0.5,3.4,1.6,4.9c2.1,3.1,2.4,6.9,0.9,10.3
		l-2.6,5.4C607.6,291.9,607.1,292.2,606.7,292.2z"/>
	<path opacity="0.34" fill="#443356" d="M627.2,293.6c-0.2,0-0.4,0-0.6-0.1c-0.6-0.3-0.9-1.1-0.6-1.7l2.6-5.4c1.2-2.5,1-5.3-0.7-7.7
		c-1.3-1.9-2-4.1-2-6.4v-4.7c0-0.7,0.6-1.3,1.3-1.3s1.3,0.6,1.3,1.3v4.7c0,1.7,0.5,3.4,1.6,4.9c2.1,3.1,2.4,6.9,0.9,10.3l-2.6,5.4
		C628.1,293.3,627.7,293.6,627.2,293.6z"/>
	<path fill="none" stroke="#443356" stroke-width="1.5" stroke-linecap="round" stroke-miterlimit="10" d="M570.3,282
		c0,0,14.1,1.7,18.9-15.5"/>
	<path fill="#FFFFFF" d="M798.3,235.5c-0.1,0-0.1,0-0.2,0c-6.6-1.3-12.7-3.8-18-7.2c-0.4-0.2-0.5-0.7-0.2-1.1
		c0.2-0.4,0.7-0.5,1.1-0.2c5.2,3.4,11.1,5.7,17.5,7c0.4,0.1,0.7,0.5,0.6,0.9C799,235.3,798.7,235.5,798.3,235.5z"/>
	<path fill="#FFFFFF" d="M788,227.8c-0.1,0-0.3,0-0.4-0.1c-2.4-1.3-4.4-3-6-5c-0.3-0.3-0.2-0.8,0.1-1.1c0.3-0.3,0.8-0.2,1.1,0.1
		c1.5,1.8,3.4,3.4,5.6,4.6c0.4,0.2,0.5,0.7,0.3,1.1C788.6,227.6,788.3,227.8,788,227.8z"/>
	<path fill="#FFFFFF" d="M809.3,218.6c-0.3,0-0.6-0.2-0.7-0.5c-0.2-0.4,0-0.9,0.4-1c3.6-1.7,7.4-2.6,11.1-2.8c0.4,0,0.8,0.3,0.8,0.7
		c0,0.4-0.3,0.8-0.7,0.8c-3.6,0.2-7.1,1-10.6,2.6C809.5,218.6,809.4,218.6,809.3,218.6z"/>
	<path fill="#FFFFFF" d="M805.6,180.4c0,0-0.1,0-0.1,0c-12.7-2.3-21.2,0-21.2,0c-0.4,0.1-0.8-0.1-1-0.5c-0.1-0.4,0.1-0.8,0.5-1
		c0.4-0.1,8.9-2.4,21.9,0c0.4,0.1,0.7,0.5,0.6,0.9C806.3,180.1,806,180.4,805.6,180.4z"/>
	<path fill="#FFFFFF" stroke="#443356" stroke-width="2" stroke-linecap="round" stroke-miterlimit="10" d="M839.2,247.2l0.6,1.7
		c4.5,13,6.1,26.9,4.5,40.6L843,317"/>
	<path fill="#FFFFFF" stroke="#443356" stroke-width="2" stroke-linecap="round" stroke-miterlimit="10" d="M768.8,228
		c-4.5,9-11.2,46.5-3.8,89"/>
	<path fill="#FFFFFF" stroke="#443356" stroke-width="2" stroke-linecap="round" stroke-miterlimit="10" d="M788,261.1l6.7,8.6
		c0,0-1.8,38.2,7.8,47.3"/>
	<path fill="#FFFFFF" stroke="#443356" stroke-width="2" stroke-linecap="round" stroke-miterlimit="10" d="M796.7,304.1
		c-0.4,5.7-0.9,11.8-1.5,12.9"/>
	
		<polyline fill="none" stroke="#000000" stroke-width="1.5" stroke-linecap="round" stroke-linejoin="round" stroke-miterlimit="10" points="
		758.8,254.9 758.8,258.5 761.7,262.8 	"/>
	<g>
		<path fill="none" stroke="#443356" stroke-width="2" stroke-miterlimit="10" d="M597.6,101.3L597.6,101.3
			c-11.7,1.1-22.2-7.3-23.6-19L571,56c-0.8-7.1,2.8-14,9.2-17.3l0,0c7-3.6,15.1-4.4,22.6-2.2v0c6.9,2,11.8,8.1,12.3,15.2l2,26.4
			C618,89.8,609.4,100.1,597.6,101.3z"/>
		<circle fill="none" stroke="#443356" stroke-width="2" stroke-miterlimit="10" cx="583.1" cy="66.6" r="7.2"/>
		<path fill="none" stroke="#443356" stroke-width="2" stroke-miterlimit="10" d="M598,65.1c-0.2-2.1-2.1-3.7-4.2-3.5
			s-3.7,2.1-3.5,4.2"/>
		<path fill="#443356" d="M611.6,55.6c-0.2,0-0.5-0.1-0.7-0.2c-2-1.3-4.4-1.9-6.8-1.7c-1.2,0.1-2.3,0.4-3.4,0.9
			c-0.7,0.3-1.4,0-1.7-0.6c-0.3-0.7,0-1.4,0.6-1.7c1.3-0.6,2.7-1,4.2-1.1c3-0.3,5.9,0.4,8.5,2.1c0.6,0.4,0.8,1.2,0.4,1.8
			C612.5,55.4,612.1,55.6,611.6,55.6z"/>
		<path fill="#443356" d="M576.6,59c-0.3,0-0.7-0.1-0.9-0.4c-0.5-0.5-0.5-1.3,0-1.8c2.2-2.1,4.9-3.4,7.9-3.7c1.5-0.1,2.9,0,4.3,0.3
			c0.7,0.2,1.1,0.9,1,1.6c-0.2,0.7-0.9,1.1-1.6,1c-1.1-0.3-2.3-0.3-3.5-0.2c-2.4,0.2-4.6,1.3-6.4,2.9C577.3,58.9,576.9,59,576.6,59z
			"/>
		<circle fill="none" stroke="#443356" stroke-width="2" stroke-miterlimit="10" cx="605.2" cy="64.4" r="7.2"/>
		<line fill="none" stroke="#443356" stroke-width="2" stroke-miterlimit="10" x1="576" y1="65.3" x2="571.3" y2="65.8"/>
		<line fill="none" stroke="#443356" stroke-width="2" stroke-miterlimit="10" x1="616.6" y1="61.3" x2="611.9" y2="61.8"/>
		<path fill="#443355" d="M571.4,67.1L571.4,67.1c-1.2-4.2-3.4-8.2-6.3-11.5l-2.5-2.8c-0.6-0.7-1-1.6-1.1-2.6v0
			c-0.2-2.5,1.6-4.7,4.1-4.9l0,0c1.6-0.2,2.7-1.6,2.6-3.1v0c-0.3-3.3,1.2-6.5,4-8.3c6.9-4.4,21-10.6,39.1-2.6l-3,0.3
			c0,0,12.5,0.3,10.4,15l0,0c2-0.2,3.5,1.8,2.7,3.7l-5.5,12.5l-1.2-12.5c0,0-2.7-11.2-18.6-11.1c0,0,5-0.3,7.8,6
			c0,0-14.7-8.4-29.8,2.9l0.3,0.6c0.9,1.6,0.7,3.6-0.5,5v0c-0.8,0.9-1.2,2.1-1.1,3.3l0.5,5.2c0.1,1-0.1,1.9-0.6,2.8L571.4,67.1z"/>
		<path opacity="0.34" fill="none" stroke="#443356" stroke-width="1.5" stroke-linecap="round" stroke-miterlimit="10" d="
			M595.3,68.6c-0.5,2,0.8,4.4,2.7,5.5c1.1,0.7,1.8,1.9,1.9,3.3c0.2,2.5-1.6,4.8-4.1,5c-1.6,0.2-3-0.5-4-1.6"/>
		<path fill="none" stroke="#443356" stroke-width="1.5" stroke-linecap="round" stroke-miterlimit="10" d="M588.3,86.7
			c-0.5,0.1-0.8,0.7-0.4,1.1c0.6,0.7,1.4,1.3,2.2,1.9c5.1,3.4,11.2,1.8,14.4-3.5c0.3-0.5-0.1-1-0.6-1L588.3,86.7z"/>
		<g>
			
				<path opacity="0.34" fill="none" stroke="#443356" stroke-width="1.5" stroke-linecap="round" stroke-linejoin="round" stroke-miterlimit="10" d="
				M619.2,71.5c0.2-0.3,0.4-0.6,0.5-0.9c0.4-1.3,0.7-2.5,0.6-3.8c0-0.7-0.4-1.2-0.6-1.4c-0.2-0.2-0.7-0.6-1.5-0.5l-1.3,0.1"/>
			<path fill="none" stroke="#443356" stroke-width="2" stroke-miterlimit="10" d="M617,76.5L617,76.5c2.5-0.2,4.8-2,5.7-4.6
				c0.5-1.5,0.9-3.2,0.9-5.2c-0.1-3.3-2.7-5.8-5.7-5.5l-2.4,0.2"/>
		</g>
		<g>
			
				<path opacity="0.34" fill="none" stroke="#443356" stroke-width="1.5" stroke-linecap="round" stroke-linejoin="round" stroke-miterlimit="10" d="
				M570,76.3c-0.3-0.2-0.5-0.5-0.7-0.8c-0.7-1.1-1.1-2.3-1.3-3.6c-0.1-0.7,0.2-1.3,0.3-1.5c0.2-0.3,0.6-0.7,1.3-0.8l1.3-0.1"/>
			<path fill="none" stroke="#443356" stroke-width="2" stroke-miterlimit="10" d="M573.2,80.8L573.2,80.8c-2.5,0.2-5.1-1.1-6.5-3.4
				c-0.8-1.3-1.5-3-1.8-4.9c-0.5-3.2,1.6-6.2,4.5-6.5l2.4-0.2"/>
		</g>
	</g>
	
		<path opacity="0.34" fill="none" stroke="#443356" stroke-width="1.5" stroke-linecap="round" stroke-linejoin="round" stroke-miterlimit="10" d="
		M596.7,123.5h5c0.7,0,1.4,0.3,1.9,0.8v0c1.2,1.2,3.2,1,4.1-0.5l0.2-0.4c0.3-0.5,0.8-0.9,1.4-1.1l4.5-1.6"/>
	
		<path opacity="0.34" fill="none" stroke="#443356" stroke-width="1.5" stroke-linecap="round" stroke-linejoin="round" stroke-miterlimit="10" d="
		M791.5,126.1h5c0.7,0,1.4,0.3,1.9,0.8v0c1.2,1.2,3.2,1,4.1-0.5l0.2-0.4c0.3-0.5,0.8-0.9,1.4-1.1l4.5-1.6"/>
	<path fill="#FFFFFF" stroke="#443356" stroke-width="2" stroke-linecap="round" stroke-miterlimit="10" d="M818.5,84.1h0.6
		c2.8,0,5.3-1.9,5.9-4.7c0.2-0.9,0.4-1.8,0.4-2.9c0.2-3.4-2.6-6.3-6.1-6.3l0,0"/>
	<path opacity="0.34" fill="#443356" d="M792,115.3c0,0,14.1,0.7,24-13.2c0,0-0.7-4.2-0.9-8.4c0,0-2.3,11.3-15.7,12.4
		c0,0-9.8,0.2-13.4-5.4l-2,6.7L792,115.3z"/>
	<path fill="#DF74E8" d="M782.2,84.1l-8.8-1.5c-3.7,10.6-5.6,21.7-5.6,32.9v0.1c0,3.1,1.2,6.1,3.5,8.3c1.2,1.2,2.7,2.2,4.3,2.8
		l4.4,1.6c0.1,0,5.7,2.1,11.5-1.8c2.6-2.3,4.2-5.6,4.2-9.3v-1.7c0-3.3-1.3-6.4-3.6-8.7l-2.4-2.4l0.2-10.8L782.2,84.1z"/>
	<path fill="#FFFFFF" stroke="#443356" stroke-width="2" stroke-linecap="round" stroke-miterlimit="10" d="M778.1,84.1h-0.6
		c-2.8,0-5.3-1.9-5.9-4.7c-0.2-0.9-0.4-1.8-0.4-2.9c-0.2-3.4,2.6-6.3,6.1-6.3l0,0"/>
	<path fill="#FFFFFF" stroke="#443356" stroke-width="2" stroke-linecap="round" stroke-miterlimit="10" d="M818.6,72.3
		c-0.2,7.6-1.3,14.6-3.5,21.5c-2.3,7.1-8.5,12-15.7,12.4c-0.3,0-0.5,0-0.8,0c-8.1,0.2-15.3-5.7-17.3-13.9
		c-1.8-7.3-2.9-14.6-3.5-22.6c-0.1-1.1,0.3-2.3,1-3.1c1.6-1.9,4.7-6.4,7.1-14.8l4.8-2.8c2.2-1.2,4.7-1.7,7.1-1.1l3,0.6
		c8,1.7,14.3,8.2,16.1,16.6L818.6,72.3z"/>
	<ellipse fill="#443356" cx="808.9" cy="72.7" rx="1.5" ry="3"/>
	<path fill="#DF74E8" d="M784,44.6c0,0,3.8,26.5,38,25.2v-8.7c0-12.3-10-22.3-22.3-22.3h-10C786.6,38.9,784,41.4,784,44.6L784,44.6z
		"/>
	<path opacity="0.34" fill="none" stroke="#443356" stroke-width="1.5" stroke-linecap="round" stroke-miterlimit="10" d="
		M797.3,69.2L797.3,69.2c0,2.5,0.7,5,2,7.2l2.3,3.9c1.9,3.2-0.1,7.5-3.9,7.8c-0.2,0-0.3,0-0.5,0"/>
	<ellipse fill="#443356" cx="787.5" cy="72.7" rx="1.5" ry="3"/>
	<path fill="none" stroke="#443356" stroke-width="1.5" stroke-linecap="round" stroke-miterlimit="10" d="M791.7,64.2
		c-1.3-0.7-2.7-1-4.2-1c-2.3,0-4.4,0.9-6,2.3"/>
	<path fill="none" stroke="#443356" stroke-width="1.5" stroke-linecap="round" stroke-miterlimit="10" d="M803.8,64.2
		c1.3-0.7,2.7-1,4.2-1c2.3,0,4.4,0.9,6,2.3"/>
	<g>
		<path fill="none" stroke="#443356" stroke-width="1.5" stroke-linecap="round" stroke-miterlimit="10" d="M792,93.6
			c0,0,2.2,4.2,6.4,4.2c2.6,0,4.5-1.5,5.5-2.6l1.2-1.2"/>
		<path fill="#443356" d="M789.6,93.3l4.2-1.1c0.6-0.2,1.2-0.2,1.8-0.1l2.7,0.5l2.7-0.5c0.6-0.1,1.2-0.1,1.8,0.1l4.2,1.1
			c0,0-2.1,2.3-6.1,1.7c-1.8-0.3-3.5-0.3-5.3,0C791.7,95.6,789.6,93.3,789.6,93.3z"/>
	</g>
	<path fill="#FFFFFF" stroke="#443356" stroke-width="2" stroke-linecap="round" stroke-miterlimit="10" d="M844.1,155.7
		L844.1,155.7c-0.8,5-3.7,11.7-6.5,15.8c-0.9,1.4-2,3-2.9,4.9"/>
	<g>
		<path fill="#FFFFFF" stroke="#443356" stroke-width="2" stroke-linejoin="round" stroke-miterlimit="10" d="M839.4,232.9
			c-1.1,0.4-2.3,0.3-3.4-0.3l-11.3-6.4c-3.5-2-7.8-1.5-10.8,1.1l-7.7,6.8c-0.4,0.3-0.6,0.8-0.6,1.3c0,1.2,1.1,2,2.2,1.6l0.9-0.3
			l1.8,2.2l-1.2,1.5c-0.4,0.5-0.6,1-0.6,1.6c0,1.1,0.6,2,1.6,2.4c2.2,0.9,4.6,1.1,6.9,0.7c2-0.4,4-0.9,5.5-1.3
			c1.7-0.5,3.6,0.2,4.5,1.7v0c1.1,1.8,3,2.9,5.1,2.9c4.6,0,9.2-1.5,12.8-4.4c0.5-0.4,1-0.8,1.5-1.2
			C843.1,239.9,840.8,235.9,839.4,232.9z"/>
		
			<line opacity="0.34" fill="none" stroke="#443356" stroke-width="1.5" stroke-linecap="round" stroke-miterlimit="10" x1="807.7" y1="236.7" x2="817.6" y2="230.5"/>
		<path opacity="0.34" fill="none" stroke="#443356" stroke-width="1.5" stroke-linecap="round" stroke-miterlimit="10" d="
			M823.4,234.2l-2-0.2c-1.4-0.1-2.8,0.2-4.1,0.9l-6.8,3.9"/>
		<path opacity="0.34" fill="none" stroke="#443356" stroke-width="1.5" stroke-linecap="round" stroke-miterlimit="10" d="
			M809.8,243.1l11.6-4.5c1.3-0.5,2.6-0.5,3.9,0l2.5,1"/>
	</g>
	<path fill="#443356" d="M845.2,246l-1.6-1.1c-3.9-2.7-6.6-6.9-7.5-11.6l-0.3-1.8c-0.1-0.7,0.3-1.4,1-1.5l4.1-0.8
		c0.4-0.1,0.8,0.2,0.9,0.6l0.4,2.3c0.6,3.1,2.4,5.8,4.9,7.6l2.4,1.7c0.6,0.4,0.7,1.3,0.1,1.8l-2.7,2.6
		C846.6,246.4,845.8,246.4,845.2,246z"/>
	<path opacity="0.34" fill="none" stroke="#443356" stroke-width="1.5" stroke-linecap="round" stroke-miterlimit="10" d="
		M831.9,317l1.6-28.9c0.8-13.4-0.5-26.8-3.7-39.8v0"/>
	<path opacity="0.34" fill="#443356" d="M581.2,108.9c0,0,20.6,0,28.2-9.9l-0.3-2.5c0,0-3.9,4.7-11.5,4.7c0,0-8.6,1.6-15.6-4.7
		C582,96.6,583.7,104.8,581.2,108.9z"/>
</g>
<path fill="none" stroke="#443355" stroke-width="2" stroke-miterlimit="10" d="M115,75.5v7.9c0,2.5,1.4,4.7,3.7,5.7l3.5,1.6
	l3.5-1.6c2.2-1,3.7-3.3,3.7-5.7v-8.9"/>
<path fill="none" stroke="#443355" stroke-width="1.5" stroke-linecap="round" stroke-linejoin="round" stroke-miterlimit="10" d="
	M127.3,88.1h2c1.1,0,2.1,0.7,2.4,1.8l0.8,2.4c0,0,3.8-4.9,1.3-10.4"/>
<path fill="none" stroke="#443355" stroke-width="1.5" stroke-linecap="round" stroke-linejoin="round" stroke-miterlimit="10" d="
	M117.6,88.1h-2c-1.1,0-2.1,0.7-2.4,1.8l-0.8,2.4c0,0-3.8-4.9-1.3-10.4"/>
<path fill="none" stroke="#443355" stroke-width="2" stroke-linejoin="round" stroke-miterlimit="10" d="M129.4,79.2
	c0,0,8.3,5.1,21.9,13.2c3.3,2,5.3,5.5,5.3,9.3c0,0,0,0.1,0,0.1c-0.1,3.8,0.7,7.5,2.5,10.8c2.6,5,6,13,6,21.4c0,1.6-1.3,3-2.9,3
	c-3.3,0-8.9,0.5-13,3.8l-1.3-5.1c-0.3-1.2,0.2-2.6,1.3-3.3l0,0c0,0-1.6-9.4-3.3-14.9"/>
<path fill="none" stroke="#443355" stroke-width="2" stroke-linecap="round" stroke-linejoin="round" stroke-miterlimit="10" d="
	M115,79.2c0,0-3.7,2.3-10.3,6.3c-6.5,3.9-12.1,9-16.6,15.1l0,0c-2.6,3.5-4.2,7.7-4.5,12.1c-0.6,8.9-1.4,24.1-0.3,30.1
	c0,0,5.7,3,13.3,1l0.7-9.2l-2.3-0.8c0,0,1.4-12.3,3.9-15.8c0,0,7.5,9,2.4,34c-0.4,1.9-1.2,3.7-2.5,5.3l-0.9,1.1
	c-0.3,0.4-0.5,0.9-0.6,1.3v0c-0.2,1.6,1.1,3.1,2.7,3.1h2.1c1.4,0,2.8,0.4,3.9,1.1l8.7,5.3c5.8,3.5,12.6,5.1,19.3,4.3
	c4.3-0.5,8.7-2.1,12-5.7"/>
<path fill="none" stroke="#443355" stroke-width="1.5" stroke-linecap="round" stroke-linejoin="round" stroke-miterlimit="10" d="
	M95,133.7c0,0-4-0.8-7.9-2.4"/>
<line fill="none" stroke="#443355" stroke-width="2" stroke-linecap="round" stroke-linejoin="round" stroke-miterlimit="10" x1="98.9" y1="117.9" x2="96" y2="112.9"/>
<path fill="none" stroke="#443355" stroke-width="2" stroke-linecap="round" stroke-linejoin="round" stroke-miterlimit="10" d="
	M149.1,109.2l-2,2.5c-0.6,0.8-1,1.7-1.1,2.7c-0.3,5.7-0.5,29.5,2,44.1"/>
<g>
	<path fill="#FFFFFF" d="M119.4,150.8c-0.3,0-0.5-0.1-0.7-0.3c-0.2-0.2-0.3-0.4-0.3-0.7c0-0.3,0.1-0.5,0.3-0.7c0.4-0.4,1-0.4,1.4,0
		c0.2,0.2,0.3,0.4,0.3,0.7c0,0.3-0.1,0.5-0.3,0.7C119.9,150.7,119.7,150.8,119.4,150.8z"/>
	<path fill="#FFFFFF" d="M118.4,131.2c0-0.5,0.4-1,1-1l0,0c0.5,0,1,0.5,1,1l0,0c0,0.6-0.5,1-1,1l0,0
		C118.9,132.2,118.4,131.8,118.4,131.2z M117.8,112.7c-0.1-0.6,0.3-1.1,0.9-1.1l0,0c0.6,0,1,0.3,1.1,0.9l0,0c0.1,0.5-0.3,1-0.9,1.1
		l0,0c0,0-0.1,0-0.1,0l0,0C118.3,113.6,117.9,113.2,117.8,112.7z"/>
	<path fill="#FFFFFF" d="M120.4,95.2c-0.3,0-0.5-0.1-0.7-0.3c-0.2-0.2-0.3-0.4-0.3-0.7c0-0.3,0.1-0.5,0.3-0.7c0.4-0.4,1.1-0.4,1.4,0
		c0.2,0.2,0.3,0.4,0.3,0.7c0,0.3-0.1,0.5-0.3,0.7C120.9,95.1,120.6,95.2,120.4,95.2z"/>
</g>
<path fill="none" stroke="#FFFFFF" stroke-width="1.5" stroke-linecap="round" stroke-linejoin="round" stroke-miterlimit="10" d="
	M116,154.2c0.9,0.5,1.8,1.1,2.6,1.8c1,0.8,2.1,1.3,3.4,1.5l3,0.4c0.7,0.1,2,0.2,3.4,0.1"/>
<path fill="none" stroke="#FFFFFF" stroke-width="1.5" stroke-linecap="round" stroke-linejoin="round" stroke-miterlimit="10" d="
	M112.6,159.2c0.7,0.4,1.5,0.9,2.1,1.4l0,0c1.9,1.5,4.1,2.5,6.5,2.8l2.7,0.3c0,0,4.3,0.8,8.7-0.4"/>
<path fill="none" stroke="#443355" stroke-width="2" stroke-linejoin="round" stroke-miterlimit="10" d="M122.2,90.7l1.5,0.7
	c1.1,0.5,1.6,1.7,1.3,2.8v0c-1.8,6-2.5,12.2-1.8,18.4l0.4,4.2c0.2,1.6,0.3,3.2,0.3,4.9v42.1h0c2.4,2.2,2.6,6,0.3,8.3l-0.6,0.7"/>
<path fill="none" stroke="#443355" stroke-width="1.5" stroke-linecap="round" stroke-linejoin="round" stroke-miterlimit="10" d="
	M148.1,133.5c0,0,4.8-4.1,10.7-6.7"/>
<path fill="none" stroke="#443355" stroke-width="2" stroke-linejoin="round" stroke-miterlimit="10" d="M150.8,139.8l-2.3,14.5
	c-0.2,1.2-0.3,2.5-0.4,3.7l-0.7,12.4l-1.2,5.3c0,0,3.3,3.5,5.7,4.3l8.7-29.7c1.1-3.6,1.8-7.3,2.3-11l0.3-2.2"/>
<path fill="none" stroke="#443355" stroke-width="2" stroke-linecap="round" stroke-linejoin="round" stroke-miterlimit="10" d="
	M143.3,177.9c0,0,4.8,5.7,9.2,6.3v0.1c0,1.7-0.6,3.3-1.6,4.7l-0.2,0.3l0,0c0.6,2,0.4,4.2-0.7,6l-0.8,1.5c0,0,7.2,29.2,3.3,55
	l-13.7,44.3h2.3l-3,6.8c0,0-9.5,1.7-12.7,3.8v-9c0,0,2.5-31.5,10.2-43.9c1.2-2,1.7-4.2,1.6-6.5c-0.2-4.6-1.1-12.6-4.7-22l-8.6-33
	l-4.1,29.8c-1.2,7-1.9,14.1-2.1,21.2l-0.6,22l-2.5,39.7c0,0-8.5,1.3-12.7-0.2l-0.7-8.5h2l-8.2-73.4c-0.6-5.7-1-11.5-1-17.2v0
	c0-11.4,1.3-22.8,3.8-34l2-8.9"/>
<path fill="none" stroke="#443355" stroke-width="2" stroke-linecap="round" stroke-linejoin="round" stroke-miterlimit="10" d="
	M116.7,193.1c0,0,6-3.6,14.9-1.8"/>
<path fill="none" stroke="#443355" stroke-width="2" stroke-linecap="round" stroke-linejoin="round" stroke-miterlimit="10" d="
	M85,143.4c0,0,2.1,26.3,11.1,38.6"/>
<path fill="none" stroke="#443355" stroke-width="2" stroke-linecap="round" stroke-linejoin="round" stroke-miterlimit="10" d="
	M95,144.1v21.4c0,1.7,1.4,3.1,3.1,3.1l0,0"/>
<path fill="none" stroke="#443355" stroke-width="2" stroke-linecap="round" stroke-linejoin="round" stroke-miterlimit="10" d="
	M108.3,297c-1.5-0.4-3.8-0.1-4.8-0.8"/>
<path fill="none" stroke="#443355" stroke-width="2" stroke-linecap="round" stroke-linejoin="round" stroke-miterlimit="10" d="
	M138.8,296.1c0,0-3-0.1-7.4,0.7"/>
<path fill="#443355" d="M127,305.9l-3.1,13v5.2h32.7v-2.5c0,0-6.7-6.8-13.8-8.7l-4-4.2l-2.3,0.8l-0.2-6.3
	C136.3,303.3,130.4,303.9,127,305.9z"/>
<path fill="#443355" d="M104.5,305.3c0,0-1.7,4.8-2.8,10.2c-1.2,5.7,1.5,11.5,6.6,14.3h0h3.5c1.7,0,3.3-1,4-2.5l1.3-2.6
	c1-2,1.2-4.3,0.5-6.5l-3.8-12.8"/>
<g>
	<path fill="#9784D3" d="M342.6,169.6L341,169c-0.9,0-1.5,0.9-1.3,1.7c0.7,2.3,1.8,6.2,1.2,8.8l0,0c-1.6,2.5-2.5,5.4-2.5,8.3v24.1
		l-2.5,21.7v6.3c0,0,21.2,3.4,31.9-1.8c0,0,0.1-1.3,0.3-3.4c0,0,17.9,2.1,20.7-3.9l-2.8-12.1l-1.1-13.7l-1.4-21.7l-1.4-8l-1.3-10
		C380.7,165.4,377.9,173.2,342.6,169.6z"/>
	<path fill="#FFFFFF" d="M367.7,238.2c0,0,0.1-1.3,0.3-3.4c0,0,17.9,2.1,20.7-3.9l-0.7-3l0,0c-10.4,3.7-19.7,3-19.7,3l-0.1,1.3
		c-6.6,4.2-23.4,2.1-23.4,2.1l1.5-20l0.1-4.8l-0.3-4.4l-0.9-12.7c-0.6-8.7,1.8-11.9,1.8-11.9l-6.1-1.1c0,0.1,0,0.1,0,0.2
		c-1.6,2.5-2.5,5.4-2.5,8.3v24.1l-2.5,21.7v6.3C335.9,240,357.1,243.4,367.7,238.2z"/>
	<path fill="none" stroke="#443355" stroke-width="2" stroke-linecap="round" stroke-linejoin="round" stroke-miterlimit="10" d="
		M342.7,169H341c-0.9,0-1.5,0.9-1.3,1.7c0.7,2.3,1.8,6.2,1.2,8.8l0,0c-1.6,2.5-2.5,5.4-2.5,8.3v24.1l-2.5,21.7v6.3
		c0,0,21.2,3.4,31.9-1.8c0,0,1.6-18.8,1.2-34.7c-0.1-2.2,1.1-4.2,3-5.3l1.6-0.9c0,0,0-8.7-0.7-16.1"/>
	<path fill="none" stroke="#443355" stroke-width="1.5" stroke-linecap="round" stroke-linejoin="round" stroke-miterlimit="10" d="
		M365.3,233.3c-3.4,1.1-7.7,1.5-12,1.5c-2.9,0-5.8-0.2-8.5-0.5l1.5-20c0.2-2.4,0.2-4.8,0-7.2l-1.2-16.6c-0.2-3.2,0.2-6.3,1.3-9.3
		l0,0"/>
	<path fill="none" stroke="#443355" stroke-width="2" stroke-linecap="round" stroke-linejoin="round" stroke-miterlimit="10" d="
		M368,234.8c0,0,10.6,2.3,19.6-2.1c0.8-0.4,1.2-1.3,1-2.1l-2.7-11.8c-0.3-1.2-0.4-2.4-0.5-3.6l-1.7-28.6c-0.2-2.6-0.5-5.2-1-7.8
		l-1-4.8l-1-8.5"/>
	<path fill="none" stroke="#443355" stroke-width="1.5" stroke-linecap="round" stroke-linejoin="round" stroke-miterlimit="10" d="
		M387.9,227.8c0,0-6.8,3-15,3.1"/>
	<path fill="none" stroke="#443355" stroke-width="1.5" stroke-linecap="round" stroke-linejoin="round" stroke-miterlimit="10" d="
		M343.8,180c6.5,1,22.9,2.2,37.9-6.1"/>
</g>
<path fill="none" stroke="#443355" stroke-width="2" stroke-linecap="round" stroke-linejoin="round" stroke-miterlimit="10" d="
	M348.9,308.3l10.9-50.9c0.4-1.5,0.7-3,0.9-4.5l2-11.8"/>
<path fill="none" stroke="#443355" stroke-width="2" stroke-linecap="round" stroke-linejoin="round" stroke-miterlimit="10" d="
	M341.6,241.1l0.8,7.3c0.7,2.2,0.9,4.5,0.6,6.8l-1.5,13.8c0,0-4,21-0.2,39"/>
<path fill="none" stroke="#443355" stroke-width="2" stroke-linecap="round" stroke-linejoin="round" stroke-miterlimit="10" d="
	M372.6,308L372.6,308c0-5.5-0.4-11-1.3-16.4l-1.5-9.4c-1.1-7.3-1.1-14.8,0.2-22.1l0.5-2.9l-3.3-16"/>
<path fill="none" stroke="#443355" stroke-width="2" stroke-linecap="round" stroke-linejoin="round" stroke-miterlimit="10" d="
	M380.9,307.2l4.8-50.9c0,0,2.7-9.3,1.1-22.3"/>
<g>
	<circle fill="#DF74E8" cx="240.1" cy="173.6" r="20.5"/>
	<path fill="#FFFFFF" d="M248.8,172.1h-7.2v-7.2c0-0.8-0.7-1.5-1.5-1.5s-1.5,0.7-1.5,1.5v7.2h-7.2c-0.8,0-1.5,0.7-1.5,1.5
		s0.7,1.5,1.5,1.5h7.2v7.2c0,0.8,0.7,1.5,1.5,1.5s1.5-0.7,1.5-1.5v-7.2h7.2c0.8,0,1.5-0.7,1.5-1.5S249.6,172.1,248.8,172.1z"/>
</g>
<path fill="#C659D1" d="M1048.5,168.6c0,0-15.1,5.6-17.2-10.5c0,0-0.9-6.9,5.6-9.7c2.7-1.1,4.5-3.6,4.5-6.5v-4.4
	c0-2.3,1.8-4.1,4.1-4.1h0.2c2.3,0,4.1-1.8,4.1-4.1v0c0-1.6,0.9-2.9,2.2-3.6l2.6,2.3l3.6-0.4v0c2.3,6,1.5,12.8-2.2,18l-6.2,8.8
	C1049.8,154.5,1045.9,161,1048.5,168.6z"/>
<path fill="none" stroke="#443355" stroke-width="2" stroke-linecap="round" stroke-linejoin="round" stroke-miterlimit="10" d="
	M1032.9,254.3l0.2-0.2c7.9-5.6,16.7-12.1,26.1-14.8c5.8-1.6,12.9-3.9,19.5-6.6c14.9-6.2,20.5-22.3,11.3-35.6
	c-0.1-0.2-0.2-0.3-0.3-0.5l-0.1-0.6c-0.8-3.1-2-6-3.9-8.5c-2.8-3.9-6.4-12.6-1.3-29.1c0,0,1.7-8.9,0.2-13.8
	c-1.6-4.9,1.7-45.8,1.7-45.8s7.6-36.3,4.5-48.1c0,0-1-10.3-5.8-14.6l-0.2,0.2c-2,1.9-3.1,4.5-3.1,7.2v2.5l0,0
	c-1.7,0.7-3,2.2-3.4,4.1l-0.6,2.5c-0.4,1.8-0.3,3.6,0.3,5.3c0.5,1.4,1.2,3.2,2,4.8c1,2,1.2,4.3,0.7,6.4l-6.9,26.3
	c-0.4,2-0.6,4.1-0.7,6.1l-1.1,24.8c-0.1,2.4-0.4,4.7-0.8,7.1l-1.8,8.7"/>
<path fill="none" stroke="#443355" stroke-width="2" stroke-linecap="round" stroke-linejoin="round" stroke-miterlimit="10" d="
	M1030,308.4l-11.6-49.6c-1.5-5.8-0.1-12,3.8-16.5c12.6-14.6,38.4-33.1,38.4-33.1v0c0.8-5.1,0.8-10.3,0-15.4l-0.5-3.7
	c-0.7-4.9-2.5-9.5-5.5-13.5c-0.8-1-1.6-2-2.6-2.9c-2.1-2-3.6-4.5-4.2-7.3c-0.2-1-0.4-2.1-0.4-3.2v-0.8c0-2.8,0.8-5.5,2.3-7.8
	l7.1-10.9c1.8-2.8,2.9-6.1,2.8-9.4c0-2.4-0.4-4.9-1.5-6.6"/>
<path fill="none" stroke="#443355" stroke-width="2" stroke-linecap="round" stroke-linejoin="round" stroke-miterlimit="10" d="
	M1036.4,308.4V284l0.3-1.6c1.6-9.9,1.1-20-1.7-29.6v0"/>
<path fill="none" stroke="#443355" stroke-width="2" stroke-linecap="round" stroke-linejoin="round" stroke-miterlimit="10" d="
	M1075.6,239.2c3.3,5.7,9.7,17.8,16.7,22.4c0,0,23.6,25.9,27.7,34.1"/>
<path fill="none" stroke="#443355" stroke-width="2" stroke-linecap="round" stroke-linejoin="round" stroke-miterlimit="10" d="
	M1090.8,198.4c0,0,9.6,10.7,4.7,29.1c0,0,3.7,23,8.6,30c0,0,14.8,5.8,21.3,36.4"/>
<path fill="none" stroke="#443355" stroke-width="1.5" stroke-linecap="round" stroke-linejoin="round" stroke-miterlimit="10" d="
	M1025.1,285c0,0,6.8,0.9,11.3-1"/>
<path fill="none" stroke="#443355" stroke-width="1.5" stroke-linecap="round" stroke-linejoin="round" stroke-miterlimit="10" d="
	M1106.1,277.3c0,0,7.2-1.5,9.6-8.8"/>
<g>
	<path fill="none" stroke="#443355" stroke-width="2" stroke-linecap="round" stroke-linejoin="round" stroke-miterlimit="10" d="
		M1007.1,317.1l-0.4,1.1c-0.5,1.3,0,2.8,1.2,3.5l0,0c6.1,4,13.2,3.1,16.8,2.2c1.4-0.4,2.9-0.4,4.4-0.2c6.1,1.1,11.1-1.2,13.6-2.4
		c0.7-0.4,0.9-1.3,0.3-1.9l-1.7-1.7"/>
	
		<path opacity="0.34" fill="none" stroke="#443356" stroke-width="1.5" stroke-linecap="round" stroke-linejoin="round" stroke-miterlimit="10" d="
		M1038.4,318.3c-1.5,0.6-3.8,1.2-6.8,1.1c-2.1-0.1-4.3,0.1-6.3,0.6c-2.8,0.7-7.2,1.4-12,0.4c-2.1-0.5-3.9-1.9-4.9-3.8"/>
	<path fill="none" stroke="#443355" stroke-width="2" stroke-linecap="round" stroke-linejoin="round" stroke-miterlimit="10" d="
		M1007.1,317.1L1007.1,317.1c0,0,8.8-0.6,14.4-5.5c1.1-1,2-2.3,2.5-3.7l0,0c0.3-0.8,1-1.4,1.9-1.5l0,0c0.4-0.1,0.9,0.1,1.2,0.4
		l2.1,2.2c1,1,2.6,1.3,3.9,0.6l4.2-2.4l3.8,10.5"/>
	<path fill="none" stroke="#443355" stroke-width="1.5" stroke-linecap="round" stroke-linejoin="round" stroke-miterlimit="10" d="
		M1037.2,307.2l0.8-1.4c0.4-0.7,1.5-0.8,2-0.1l0,0c0.4,0.5,0.3,1.2-0.2,1.6l-2,1.7L1037.2,307.2z"/>
</g>
<g>
	<path fill="none" stroke="#443355" stroke-width="2" stroke-linecap="round" stroke-linejoin="round" stroke-miterlimit="10" d="
		M1098.4,304.6l-0.4,1.1c-0.4,1.3,0.1,2.7,1.3,3.3l0,0c6.2,3.6,13,2.3,16.4,1.2c1.4-0.4,2.8-0.6,4.3-0.4c6,0.7,10.7-1.7,13.1-3.1
		c0.7-0.4,0.8-1.3,0.2-1.8l-1.8-1.6"/>
	<path fill="none" stroke="#443355" stroke-width="2" stroke-linecap="round" stroke-linejoin="round" stroke-miterlimit="10" d="
		M1098.4,304.6L1098.4,304.6c0,0,8.5-1,13.7-6.1c1-1,1.8-2.3,2.2-3.7l0,0c0.2-0.8,0.9-1.4,1.7-1.6l0,0c0.4-0.1,0.9,0,1.2,0.3l2.2,2
		c1,1,2.6,1.1,3.8,0.3l4-2.6l4.3,10"/>
	<path fill="none" stroke="#443355" stroke-width="1.5" stroke-linecap="round" stroke-linejoin="round" stroke-miterlimit="10" d="
		M1127.2,293.4l0.7-1.4c0.4-0.7,1.4-0.8,1.9-0.2l0,0c0.4,0.5,0.4,1.2-0.1,1.6l-1.8,1.7L1127.2,293.4z"/>
</g>
<path fill="none" stroke="#443355" stroke-width="1.5" stroke-linecap="round" stroke-linejoin="round" stroke-miterlimit="10" d="
	M1049.8,154.5v2.7c0,1.7,1.4,3,3,3l0,0c1.2,0,2.2-0.7,2.7-1.7c2.3-4.6,9-17.4,14.8-21.3"/>
<path fill="none" stroke="#443355" stroke-width="1.5" stroke-linecap="round" stroke-linejoin="round" stroke-miterlimit="10" d="
	M1069.4,148.8c0,0,0.1,0.3,0.2,0.7c3,7.7,14.5,6.3,15.3-1.9c0-0.1,0-0.2,0-0.2"/>
<path opacity="0.34" fill="none" stroke="#443356" stroke-width="1.5" stroke-linecap="round" stroke-linejoin="round" stroke-miterlimit="10" d="
	M1077.4,143.6L1077.4,143.6c-0.5-1.7-0.5-3.5-0.1-5.3l0.1-0.2"/>
<path opacity="0.34" fill="none" stroke="#443356" stroke-width="1.5" stroke-linecap="round" stroke-linejoin="round" stroke-miterlimit="10" d="
	M1068.4,198.3c2.4-1.6,5.6-3.1,9.8-3.7c0.6-0.1,1.3-0.2,1.9-0.4"/>
<path fill="none" stroke="#443355" stroke-width="1.5" stroke-linecap="round" stroke-linejoin="round" stroke-miterlimit="10" d="
	M1063.7,208.5L1063.7,208.5c1.5,0,3-0.7,4-1.8c2-2.2,6.1-5.6,13.1-6.6c3.2-0.5,6.2-1.6,8.9-3.4l0,0"/>
<path fill="none" stroke="#443355" stroke-width="1.5" stroke-linecap="round" stroke-linejoin="round" stroke-miterlimit="10" d="
	M1082.8,38.9l2.3,4.4c0.6,1.2,1,2.6,1,3.9v2.2"/>
<path fill="#BFB9C5" d="M503.9,172l-7.7-4.5c-0.3-0.2-0.7,0-0.7,0.4v2.7h-66.9c-1.1,0-2,0.9-2,2v0c0,1.1,0.9,2,2,2h66.9v2.7
	c0,0.4,0.4,0.6,0.7,0.4l7.7-4.5C504.5,173.1,504.5,172.4,503.9,172z"/>
<path fill="#BFB9C5" d="M915.1,173.4l7.7,4.5c0.3,0.2,0.7,0,0.7-0.4v-2.7h66.9c1.1,0,2-0.9,2-2l0,0c0-1.1-0.9-2-2-2h-66.9V168
	c0-0.4-0.4-0.6-0.7-0.4l-7.7,4.5C914.5,172.4,914.5,173.1,915.1,173.4z"/>
<g>
	<path fill="none" stroke="#443355" stroke-width="2" stroke-miterlimit="10" d="M122.6,77L122.6,77c-7.5,0.5-14-5-14.7-12.5
		l-1.5-16.8c-0.4-4.5,2-8.9,6.1-10.9l0,0c4.5-2.2,9.7-2.6,14.4-1l0,0c4.3,1.4,7.4,5.3,7.6,9.9l0.9,16.9
		C135.8,70.1,130.1,76.5,122.6,77z"/>
	<circle fill="none" stroke="#443355" stroke-width="1.5" stroke-miterlimit="10" cx="114" cy="54.7" r="4.6"/>
	<path fill="none" stroke="#443355" stroke-width="1.5" stroke-miterlimit="10" d="M123.4,54c-0.1-1.4-1.3-2.4-2.6-2.3
		c-1.4,0.1-2.4,1.3-2.3,2.6"/>
	<path fill="none" stroke="#443355" stroke-width="1.5" stroke-linecap="round" stroke-miterlimit="10" d="M125,45.7
		c0.8-0.3,1.6-0.5,2.4-0.6c1.8-0.1,3.5,0.4,4.8,1.3"/>
	<path fill="none" stroke="#443355" stroke-width="1.5" stroke-linecap="round" stroke-miterlimit="10" d="M117,46.2
		c-0.8-0.2-1.6-0.3-2.5-0.2c-1.8,0.1-3.4,0.9-4.6,2"/>
	<circle fill="none" stroke="#443355" stroke-width="1.5" stroke-miterlimit="10" cx="128" cy="53.7" r="4.6"/>
	<line fill="none" stroke="#443355" stroke-width="2" stroke-miterlimit="10" x1="109.5" y1="53.8" x2="106.4" y2="54"/>
	<line fill="none" stroke="#443355" stroke-width="2" stroke-miterlimit="10" x1="135.4" y1="51.9" x2="132.3" y2="52.2"/>
	<path fill="#443355" d="M106.5,54.9L106.5,54.9c-0.7-2.7-2-5.2-3.8-7.4l-1.5-1.8c-0.4-0.5-0.6-1-0.7-1.7v0c-0.1-1.6,1.1-3,2.7-3.1
		h0c1-0.1,1.8-0.9,1.7-2v0c-0.2-2.1,0.9-4.1,2.7-5.2c4.4-2.7,13.5-6.4,24.9-1l-1.9,0.1c0,0,7.9,0.4,6.4,9.8l0,0
		c1.3-0.1,2.2,1.2,1.6,2.4l-3.7,7.8l-0.6-8c0,0-1.6-7.2-11.7-7.4c0,0,3.2-0.1,4.9,4c0,0-9.2-5.6-19,1.4l0.2,0.4
		c0.6,1,0.4,2.3-0.4,3.2v0c-0.5,0.6-0.8,1.3-0.7,2.1l0.2,3.3c0,0.6-0.1,1.2-0.4,1.7L106.5,54.9z"/>
	<g>
		<path fill="none" stroke="#443355" stroke-width="2" stroke-linecap="round" stroke-linejoin="round" stroke-miterlimit="10" d="
			M135.3,61.6L135.3,61.6c1.6-0.1,3.1-1.2,3.7-2.9c0.4-0.9,0.6-2,0.6-3.3c0-2.1-1.6-3.7-3.5-3.6l-1.5,0.1"/>
	</g>
	<g>
		<path fill="none" stroke="#443355" stroke-width="2" stroke-linecap="round" stroke-linejoin="round" stroke-miterlimit="10" d="
			M107.4,63.6L107.4,63.6c-1.6,0.1-3.2-0.8-4.1-2.3c-0.5-0.9-0.9-1.9-1.1-3.2c-0.3-2.1,1.1-3.9,3-4.1l1.5-0.1"/>
	</g>
</g>
<g>
	<path fill="none" stroke="#443355" stroke-width="1.5" stroke-linecap="round" stroke-linejoin="round" stroke-miterlimit="10" d="
		M328.1,116.8c0,0,5.2,3.1,6.5,5.9"/>
	<path fill="none" stroke="#443355" stroke-width="2" stroke-linecap="round" stroke-linejoin="round" stroke-miterlimit="10" d="
		M328.8,120.7c-0.3,4.3,2,9.2,4.7,12.6c3.5,4.3,6.2,9.1,7.5,14.4c0.2,0.9,0.4,1.8,0.6,2.8c1.3,6.8,2,15.5,0.7,20.1
		c0,0,27.9,3.9,37.3-3.3l0.8-10.8c0.3-3.5,1-7.1,0.1-10.4l-0.2-0.8c-0.7-2.7-0.7-5.5-0.1-8.3c2-9,4.4-30.2-6.3-37.1l-4-2.7
		c-1.7-1.1-2.6-3.1-2.4-5.1l0.2-2.2"/>
	<g>
		<path fill="#BFB9C5" d="M288.5,76.9h3.8c7.3,0,13.3-7.7,13.5-17.2c0.2-9.5-5.5-17.2-12.8-17.2h-3.8l6,1.9l3.8,4.1
			c0,0,3.1,4.1,2.9,9.1l-0.4,6.2l-1.7,4.9c0,0-2.7,4.9-6.5,6.9L288.5,76.9z"/>
		
			<path fill="none" stroke="#BFB9C5" stroke-width="1.5" stroke-linecap="round" stroke-linejoin="round" stroke-miterlimit="10" d="
			M313.6,51.5c1.8-3,4.4-4.9,7.2-4.9c5,0,9,6,8.9,13.2c-0.2,7.1-4.5,13.2-9.4,13.2c-0.2,0-0.4,0-0.5,0"/>
		<path fill="none" stroke="#443355" stroke-width="2" stroke-linecap="round" stroke-linejoin="round" stroke-miterlimit="10" d="
			M304.7,67.7l0.4,5.8c0.2,2.9-0.1,5.8-1,8.6c-2.1,7.2-2.9,15.1-3.3,19.5c-0.2,2.1,0.7,4.1,2.3,5.4c0,0,8.2,14.2,28.8,13.7"/>
		<path fill="none" stroke="#443355" stroke-width="2" stroke-linecap="round" stroke-linejoin="round" stroke-miterlimit="10" d="
			M316.2,68.4c-1.1,3.9-1.3,8.8-0.8,10.2c0.7,1.9,1.1,3.9,1.3,5.9c0.9,6.8,1.2,12.6,0.4,16.4"/>
		<path fill="none" stroke="#443355" stroke-width="2" stroke-linecap="round" stroke-linejoin="round" stroke-miterlimit="10" d="
			M305.1,53.4l2.3-1.1c0.7-0.3,1.5-0.3,2.1,0.2l0.3,0.3c0.5,0.4,1.1,0.4,1.6,0l1.3-0.9c0.5-0.4,1.2-0.4,1.7-0.1l0.4,0.2
			c0.4,0.2,0.9,0.2,1.3-0.1l1.1-0.8c0.9-0.6,2.1-0.8,3.1-0.3v0c1.4,0.6,2.3,1.9,2.3,3.5c0,3-0.2,8.2-1.9,12.4
			c-0.5,1.2-1.8,1.7-2.9,1.1l0,0l-0.9,0.6c-0.7,0.5-1.5,0.5-2.2,0.1l-1.1-0.6l-0.5,0.5c-0.8,0.9-2.2,1-3,0.1l-0.3-0.3l-0.7,0.5
			c-0.9,0.6-2,0.5-2.7-0.3l-0.6-0.6"/>
		
			<path fill="none" stroke="#443355" stroke-width="1.5" stroke-linecap="round" stroke-linejoin="round" stroke-miterlimit="10" d="
			M317.6,54.1l0.1,0.9c0.3,2.4,0.5,4.8,0.5,7.2c0,1.9-0.2,4-0.5,5.5"/>
		
			<path fill="none" stroke="#443355" stroke-width="1.5" stroke-linecap="round" stroke-linejoin="round" stroke-miterlimit="10" d="
			M313.7,57.7l0,0.7c0.1,1.8,0.1,3.5,0.1,5.3c0,1.4-0.1,3-0.2,4.1"/>
		
			<path fill="none" stroke="#443355" stroke-width="1.5" stroke-linecap="round" stroke-linejoin="round" stroke-miterlimit="10" d="
			M309.7,68.3c0,0,0.6-8.8-0.2-11.5"/>
		<path fill="none" stroke="#443355" stroke-width="2" stroke-linecap="round" stroke-linejoin="round" stroke-miterlimit="10" d="
			M302.1,59.7c-0.2,9.5-6.3,17.2-13.5,17.2c-7.3,0-13-7.7-12.8-17.2c0.2-9.5,6.3-17.2,13.5-17.2C296.6,42.6,302.3,50.2,302.1,59.7z"
			/>
		
			<path fill="none" stroke="#BFB9C5" stroke-width="1.5" stroke-linecap="round" stroke-linejoin="round" stroke-miterlimit="10" d="
			M280.2,56.2c1.2-5.5,4.9-9.6,9-9.6c5,0,9,6,8.9,13.2c-0.2,7.1-4.5,13.2-9.4,13.2c-3.5,0-6.5-2.9-7.9-7.1"/>
		
			<path fill="none" stroke="#443355" stroke-width="1.5" stroke-linecap="round" stroke-linejoin="round" stroke-miterlimit="10" d="
			M281.6,58.4c0.1,0.4,0.1,0.9,0.1,1.3c0,0.9-0.2,1.8-0.6,2.5c-0.4,0.8-2.4,0.8-2.8,0c-0.3-0.7-0.5-1.5-0.5-2.5
			c0-0.9,0.2-1.8,0.6-2.5c0.2-0.4,0.8-0.6,1.4-0.6"/>
		<path fill="none" stroke="#443355" stroke-width="2" stroke-linecap="round" stroke-linejoin="round" stroke-miterlimit="10" d="
			M288.5,76.9h3.8c7.3,0,13.3-7.7,13.5-17.2c0.2-9.5-5.5-17.2-12.8-17.2h-3.8"/>
		<path fill="#BFB9C5" d="M320.1,76.9h3.8c7.3,0,13.3-7.7,13.5-17.2c0.2-9.5-5.5-17.2-12.8-17.2h-3.8l6,1.9l3.8,4.1
			c0,0,3.1,4.1,2.9,9.1l-0.4,6.2l-1.7,4.9c0,0-2.7,4.9-6.5,6.9L320.1,76.9z"/>
		<path fill="#BFB9C5" d="M381.7,76.9h3.8c7.3,0,12.6-7.7,12-17.2c-0.6-9.5-7-17.2-14.3-17.2h-3.8l6.2,1.9l4.2,4.1
			c0,0,3.4,4.1,3.7,9.1l0.1,6.2l-1.3,4.9c0,0-2.3,4.9-5.9,6.9L381.7,76.9z"/>
		<path fill="#BFB9C5" d="M413.3,76.9h3.8c7.3,0,12.6-7.7,12-17.2c-0.6-9.5-7-17.2-14.3-17.2h-3.8l6.2,1.9l4.2,4.1
			c0,0,3.4,4.1,3.7,9.1l0.1,6.2l-1.3,4.9c0,0-2.3,4.9-5.9,6.9L413.3,76.9z"/>
		<path fill="none" stroke="#443355" stroke-width="2" stroke-linecap="round" stroke-linejoin="round" stroke-miterlimit="10" d="
			M320.1,76.9h3.8c7.3,0,13.3-7.7,13.5-17.2c0.2-9.5-5.5-17.2-12.8-17.2h-3.8"/>
		<path fill="none" stroke="#443355" stroke-width="2" stroke-linecap="round" stroke-linejoin="round" stroke-miterlimit="10" d="
			M308.9,52.1c2.3-5.6,6.8-9.5,12-9.5c7.3,0,13,7.7,12.8,17.2c-0.2,9.5-6.3,17.2-13.5,17.2c-0.2,0-0.4,0-0.6,0"/>
		
			<path fill="none" stroke="#443355" stroke-width="1.5" stroke-linecap="round" stroke-linejoin="round" stroke-miterlimit="10" d="
			M279.7,62.9h8.6l0,0c0.6,0,1.2-0.2,1.4-0.6c0.3-0.7,0.6-1.5,0.6-2.5c0-0.9-0.2-1.8-0.5-2.5c-0.2-0.4-0.8-0.6-1.4-0.6h-8.6"/>
	</g>
	<g>
		
			<path fill="none" stroke="#BFB9C5" stroke-width="1.5" stroke-linecap="round" stroke-linejoin="round" stroke-miterlimit="10" d="
			M404.3,51.8c1.6-3.1,4.1-5.1,7-5.1c5.2,0,9.8,6.2,10,13.4c0.3,7.1-3.7,12.9-8.7,12.9c-0.2,0-0.4,0-0.5,0"/>
		<path fill="none" stroke="#443355" stroke-width="2" stroke-linecap="round" stroke-linejoin="round" stroke-miterlimit="10" d="
			M393.9,98.4c0.4-4.5,2.3-10.6,4-16.3c0.8-2.8,1.2-5.7,1-8.6l-0.4-0.8"/>
		<path fill="none" stroke="#443355" stroke-width="2" stroke-linecap="round" stroke-linejoin="round" stroke-miterlimit="10" d="
			M409.7,68.4c-0.8,3.9-1.1,8.8-0.8,10.2c0.4,1.9,0.5,3.9,0.6,5.9c0.3,6.8-0.3,12.6-0.9,16.4l-0.2,4.4c-0.1,2.4-1.2,4.7-3.1,6.3
			c-4.2,3.6-11.8,9.3-22.9,8.1"/>
		<path fill="none" stroke="#443355" stroke-width="2" stroke-linecap="round" stroke-linejoin="round" stroke-miterlimit="10" d="
			M395.8,53.4l2.2-1.1c0.7-0.3,1.5-0.3,2.1,0.2l0.4,0.3c0.5,0.4,1.2,0.4,1.6,0l1.2-0.9c0.5-0.4,1.1-0.4,1.7-0.1l0.4,0.2
			c0.4,0.2,1,0.2,1.3-0.1l1-0.8c0.9-0.6,2-0.8,3.1-0.3v0c1.4,0.6,2.4,1.9,2.6,3.5c0.3,3,0.5,8.2-0.8,12.4c-0.4,1.2-1.7,1.7-2.8,1.1
			l0,0l-0.8,0.6c-0.6,0.5-1.5,0.5-2.2,0.1l-1.1-0.6l-0.4,0.5c-0.7,0.9-2.1,1-3,0.1l-0.3-0.3l-0.6,0.5c-0.8,0.6-2,0.5-2.7-0.3
			l-0.6-0.6"/>
		
			<path fill="none" stroke="#443355" stroke-width="1.5" stroke-linecap="round" stroke-linejoin="round" stroke-miterlimit="10" d="
			M408.6,58.1l0.1-1.1c0.5,2.4,0.8,2.8,1,5.2c0.1,1.9,0.2,4,0,5.5"/>
		
			<path fill="none" stroke="#443355" stroke-width="1.5" stroke-linecap="round" stroke-linejoin="round" stroke-miterlimit="10" d="
			M404.7,57.7l0.1,0.7c0.2,1.8,0.4,3.5,0.5,5.3c0.1,1.4,0.2,3,0.2,4.1"/>
		
			<path fill="none" stroke="#443355" stroke-width="1.5" stroke-linecap="round" stroke-linejoin="round" stroke-miterlimit="10" d="
			M401.7,68.3c0,0,0.1-4.8-1-7.5"/>
		<path fill="none" stroke="#443355" stroke-width="2" stroke-linecap="round" stroke-linejoin="round" stroke-miterlimit="10" d="
			M373.2,44.3c1.7-1.1,3.7-1.8,5.8-1.8c7.3,0,13.6,7.5,14.2,16.8c0.6,9.6-5,17.4-12.6,17.4c-0.9,0-1.8-0.1-2.7-0.4"/>
		
			<path fill="none" stroke="#BFB9C5" stroke-width="1.5" stroke-linecap="round" stroke-linejoin="round" stroke-miterlimit="10" d="
			M377.5,46.7c0.5-0.2,1.1-0.2,1.7-0.2c5,0,9.5,5.9,9.9,13c0.4,7.2-3.6,13.3-8.7,13.3"/>
		<path fill="none" stroke="#443355" stroke-width="2" stroke-linecap="round" stroke-linejoin="round" stroke-miterlimit="10" d="
			M380.7,76.8l4,0c7.6,0,13.2-7.8,12.5-17.4c-0.6-9.4-7-16.8-14.3-16.8H379"/>
		<path fill="none" stroke="#443355" stroke-width="2" stroke-linecap="round" stroke-linejoin="round" stroke-miterlimit="10" d="
			M412.9,76.9h3.8c7.3,0,12.9-7.4,12.7-16.8c-0.3-9.6-6.7-17.5-14.3-17.5h-4"/>
		<path fill="none" stroke="#443355" stroke-width="2" stroke-linecap="round" stroke-linejoin="round" stroke-miterlimit="10" d="
			M398,98.4L398,98.4c-3.5,1.6-7.3,1.7-10.6,0.2l0,0c-2.6-1.2-5.5-1.5-8.4-0.8l0,0c-2.1,0.5-4.1,0.4-6.1,0l-3.8-0.9"/>
		<path fill="none" stroke="#443355" stroke-width="2" stroke-linecap="round" stroke-linejoin="round" stroke-miterlimit="10" d="
			M399.8,52.4c1.9-5.8,6.3-9.8,11.7-9.8c7.6,0,14,7.9,14.3,17.5c0.3,9.4-5.3,16.8-12.6,16.8c-0.2,0-0.4,0-0.6,0"/>
	</g>
	<path fill="none" stroke="#443355" stroke-width="1.5" stroke-linecap="round" stroke-linejoin="round" stroke-miterlimit="10" d="
		M333.4,96.7c6.5,5.1,10.3,13.8,9.6,23.7c-0.6,7.3-3.5,4.9-7.9,9.9"/>
	<path fill="none" stroke="#443355" stroke-width="1.5" stroke-linecap="round" stroke-linejoin="round" stroke-miterlimit="10" d="
		M343.4,95.2c2.9,2.9,7.2,8.1,8.8,11.9c1.8,4.1,5.9,6.7,10.6,6.7h3.4c4.6,0,8.4-4.4,7.5-8.9c-0.4-1.9-1-4.1-2.1-6.5"/>
	
		<path opacity="0.34" fill="none" stroke="#443356" stroke-width="1.5" stroke-linecap="round" stroke-linejoin="round" stroke-miterlimit="10" d="
		M357.2,101.4h3.8c0.5,0,0.9,0.1,1.3,0.4l0.5,0.3c0.9,0.5,2.1,0.5,3-0.1v0c0.5-0.3,1.1-0.5,1.6-0.5h1"/>
	
		<path opacity="0.34" fill="none" stroke="#443356" stroke-width="1.5" stroke-linecap="round" stroke-linejoin="round" stroke-miterlimit="10" d="
		M356.7,132.3l6.5-1.9c2.6-0.8,5.2-1.1,7.9-1.1h2"/>
	<path fill="none" stroke="#443355" stroke-width="2" stroke-linecap="round" stroke-linejoin="round" stroke-miterlimit="10" d="
		M317.6,98.4l1.8-0.4c3.4-0.7,6.9-0.6,10.1,0.4l0,0l0.2-0.1c4.8-2.7,10.3-3.8,15.6-3l1.8,0.3v0c1.2-1.1,2.1-2.5,2.8-3.9
		c1.3-2.6,1.7-5.5,1.3-8.3l-0.9-6.7"/>
</g>
<g>
	<path fill="none" stroke="#443355" stroke-width="2" stroke-linecap="round" stroke-miterlimit="10" d="M359,87.7
		c0.9,0.4,2,0.8,3.1,1.1c7,1.9,14-3.2,14.3-10.5c0.1-2.2,0.4-4.4,1.1-6.5"/>
	<ellipse fill="none" stroke="#443355" stroke-width="1.5" stroke-miterlimit="10" cx="362.2" cy="67.6" rx="4.2" ry="4.7"/>
	<path fill="none" stroke="#443355" stroke-width="1.5" stroke-miterlimit="10" d="M370.9,67.6c0-1.4-1-2.5-2.3-2.5
		c-1.2,0-2.3,1.1-2.3,2.5"/>
	<path fill="#443355" d="M377.7,61.6c-0.2,0-0.4-0.1-0.6-0.2c-0.6-0.6-1.6-1.2-2.8-1.1c-0.4,0.1-0.9,0.2-1.3,0.5
		c-0.4,0.2-0.8,0.2-1.1-0.2c-0.2-0.4-0.2-0.8,0.2-1.1c0.6-0.4,1.3-0.7,1.9-0.8c1.4-0.2,2.8,0.3,4.1,1.4c0.3,0.3,0.3,0.8,0,1.1
		C378.1,61.5,377.9,61.6,377.7,61.6z"/>
	<path fill="#443355" d="M365.8,61.1c-0.1,0-0.3,0-0.4-0.1c-0.7-0.3-1.5-0.6-2.2-0.6c-1.6-0.2-3.2,0.2-4.6,1
		c-0.4,0.2-0.8,0.1-1.1-0.3c-0.2-0.4-0.1-0.8,0.3-1.1c1.7-1,3.6-1.5,5.6-1.2c0.9,0.1,1.9,0.4,2.7,0.8c0.4,0.2,0.6,0.6,0.4,1
		C366.3,60.9,366.1,61.1,365.8,61.1z"/>
	<ellipse fill="none" stroke="#443355" stroke-width="1.5" stroke-miterlimit="10" cx="375.1" cy="67.5" rx="4.2" ry="4.7"/>
	
		<line fill="none" stroke="#443355" stroke-width="1.5" stroke-linecap="round" stroke-miterlimit="10" x1="357.9" y1="66.3" x2="349.2" y2="66.3"/>
	<path fill="#443355" d="M378.7,64l0-5.2c0,0-1.1-7.5-11.5-8.5c0,0,3.3,0.1,4.7,4.4c0,0-9.1-6.4-19.8,0l0.2,0.4
		c0.5,1.1,0.2,2.4-0.7,3.3l0,0c-0.6,0.5-0.9,1.3-0.9,2.1l0,3.5c0,0.6-0.2,1.3-0.6,1.8l-1,1.4l0,0c-0.5-2.9-1.7-5.6-3.4-7.9l-1.4-2
		c-0.4-0.5-0.6-1.1-0.6-1.8v0c0-1.6,1.3-3,3-3l0,0c1,0,1.9-0.8,1.9-1.9v0c0-2.2,1.2-4.2,3.2-5.2c4.8-2.5,14.5-5.6,25.8,0.8l-2,0
		c0,0,8.2,1,5.9,10.5l0,0c1.3,0,2.2,1.4,1.5,2.6l-3.7,6.6"/>
	<g>
		<path fill="none" stroke="#443355" stroke-width="2" stroke-linecap="round" stroke-linejoin="round" stroke-miterlimit="10" d="
			M349.5,76.3L349.5,76.3c-1.7,0-3.3-1-4-2.7c-0.4-0.9-0.8-2-0.9-3.3c-0.2-2.2,1.4-4,3.4-4l1.6,0"/>
	</g>
</g>
<path fill="none" stroke="#443355" stroke-width="2" stroke-linecap="round" stroke-linejoin="round" stroke-miterlimit="10" d="
	M1065.6,122.9c0,0-4.2,3.2-8.5,4.9c-2,0.8-4.2-0.2-4.9-2.2c-1.5-4.2-3.4-12.2-1.4-23l0.4-1.4c1.4-5.4,5.5-9.3,10.7-9.9"/>
<path fill="none" stroke="#443355" stroke-width="2" stroke-linecap="round" stroke-linejoin="round" stroke-miterlimit="10" d="
	M1063.3,108.9c0.2-1.6,1.6-2.8,3.3-2.6l0,0c1.6,0.2,2.8,1.6,2.6,3.3l-0.2,2.3c-0.2,2.4-1.9,4.3-4,5"/>
<path fill="none" stroke="#443355" stroke-width="2" stroke-linecap="round" stroke-linejoin="round" stroke-miterlimit="10" d="
	M1053.1,97c0,0,9.7,6.2,12.3,9.4"/>
<path fill="none" stroke="#443355" stroke-width="2" stroke-linecap="round" stroke-linejoin="round" stroke-miterlimit="10" d="
	M1061.9,91.3c0,0,6.9,4,11,12.2"/>
<path opacity="0.34" fill="#443356" d="M115,81.8c0,0,10.5,1.6,14.4-3.4v-2.7c0,0-7.5,3.6-14.4,0V81.8z"/>
<path opacity="0.34" fill="#443356" d="M85.3,146.8c0,0,4.4,2.3,9.6,1.5v-3.7c0,0-7.5,0.9-9.6-1.4V146.8z"/>
<path opacity="0.34" fill="#443356" d="M150.2,143.4c0,0,4.6-3.5,12.5-3.2v-2.6c0,0-5.3-1-12.1,3.4L150.2,143.4z"/>
<path fill="none" stroke="#443355" stroke-width="2" stroke-linecap="round" stroke-linejoin="round" stroke-miterlimit="10" d="
	M337.2,327.3c3.2,0.8,7.7,1.4,11.9,0.3c3.7-0.9,6.1-4.8,5.1-8.1l-1-3.8l-1.4-6.4c-0.1-0.8-0.9-1.3-1.7-1l-0.6,0.2
	c-1,0.4-1,0-1.4-0.8l-0.9-1.9c-0.5-1-1.7-1.5-2.9-1.2h0c-1,0.2-1.9,1-2.2,1.9l-0.6,1.4c-0.5,1.1-0.9,1.6-1.8,0.9l-0.5-0.4
	c-0.2-0.2-0.6,0-0.6,0.3c-0.2,1.8-1.9,7.1-4.2,12.6C333.3,323.9,334.5,326.7,337.2,327.3z"/>
<path fill="none" stroke="#443355" stroke-width="2" stroke-linecap="round" stroke-linejoin="round" stroke-miterlimit="10" d="
	M372.9,308.9l-1.4-0.2c0,0-4.7,7.3-4.3,12.9l0,0c-0.6,1.1,0.2,2.5,1.5,2.5c2.4,0,6,0,8.4-0.6c2.1-0.5,4.2-0.5,6.3-0.2
	c2.4,0.4,6.4,0.7,12.9,0.8c2.2,0,4.4-0.8,5.9-2.3c0.7-0.7,1.3-1.6,1.7-2.7c0.4-1.3-0.6-2.7-2-2.7h0h-2.8h0c-3.5,0-7.6-0.9-9.7-3.8
	c-0.9-1.2-1.9-2.3-3.1-3.1c-1.4-1-2-2.8-3.1-4.1l-0.2-0.2c0,0-3.7,2.8-3.9,6.2l-0.1-0.1C377.2,310.1,375.1,309.3,372.9,308.9z"/>
<path opacity="0.34" fill="#443356" d="M342.4,248.4c0,0,11.9,2,19.4-1.9l0.9-6.5c0,0-13.6,3.1-21.1,1.2L342.4,248.4z"/>
<path opacity="0.34" fill="#443356" d="M368,244.4c0,0,15.2-0.1,19.2-5.2l0.4-6.5c0,0-16.1,4.5-19.6,2l-1.3,4.5L368,244.4z"/>
<g>
	<circle fill="#DF74E8" cx="1157.7" cy="173.6" r="20.5"/>
	<path fill="#FFFFFF" d="M1166.4,172.1h-7.2v-7.2c0-0.8-0.7-1.5-1.5-1.5s-1.5,0.7-1.5,1.5v7.2h-7.2c-0.8,0-1.5,0.7-1.5,1.5
		s0.7,1.5,1.5,1.5h7.2v7.2c0,0.8,0.7,1.5,1.5,1.5s1.5-0.7,1.5-1.5v-7.2h7.2c0.8,0,1.5-0.7,1.5-1.5S1167.2,172.1,1166.4,172.1z"/>
</g>
<path opacity="0.34" fill="#443356" d="M1073.4,235.3c1.3,2.8,2.7,5.4,4.1,7.8c5.6-3.4,14-9.1,18.1-15.6c3-9.9,1.3-17.9-1.1-23.1
	l-1.1-0.1l1,7.3C1094.3,225.6,1081.7,232.3,1073.4,235.3z"/>
<g>
	
		<line fill="none" stroke="#CFCAD3" stroke-width="1.5" stroke-linecap="round" stroke-linejoin="round" stroke-miterlimit="10" x1="1245.6" y1="292.8" x2="1251.8" y2="292.8"/>
	
		<line fill="none" stroke="#CFCAD3" stroke-width="1.5" stroke-linecap="round" stroke-linejoin="round" stroke-miterlimit="10" x1="1296.5" y1="294.8" x2="1303.8" y2="294.8"/>
	<path fill="#CFCAD3" d="M1226.9,142.6c0,0,5.2-2.4,10.6,0.6c0.2,0.1,0.3,0.2,0.5,0.3l3.4-5.9c0,0-6.4,18.2-3.1,29.2l3.2,1.1
		c0,0,10.5,7.1,22.4,7.9l15.1-0.7c0,0,8.4-12.9,4-19.7c0,0-7-22.2-2.7-31.1c0,0,8.6,10.4,7.4,25.8c0,0,4.9-5.5,14.9,0
		c0,0-1.4-31.9-4.5-39.7c0,0-4.6-17.1-12.8-17.2l-12.2,6.7c0,0,0.8,10.7-10.3,10.5c0,0-10,0.1-4.3-11l-0.2-4.3c0,0-18.6,4.3-24,19.9
		c0,0-2.1,5.8-1.7,11.3l-0.4,3.6L1226.9,142.6z"/>
	<path fill="#DF74E8" d="M1247.1,50.2v14.5c0,1.9-0.9,3.7-2.6,4.8l-1.1,0.8c-1.9,1.3-3,3.5-3,5.7v0c0,1.9,0.8,3.7,2.2,5v0
		c2.4,2.3,2.4,6,0,8.2v0c-3.4,3.2-3.4,8.3,0,11.5l1.7,1.6c0,0,9.9-6.2,14.3-7.3V83.1c0,0-12.8-7.3-9.7-28.6
		C1249,54.5,1248.2,53.4,1247.1,50.2z"/>
	<path fill="#C659D1" d="M1273.7,63.2L1273.7,63.2c5.1,0,9.1,3.7,9.1,8.3v3.9c0,3.1,2.7,5.5,6.1,5.5l0,0c3.4,0,6.1,2.5,6.1,5.5v3.9
		c0,2-1.7,3.5-3.9,3.5h0c-2.1,0-3.9,1.6-3.9,3.5v0c0,5.7-5.1,10.3-11.3,10.3h-4.5c0,0,2.6-2.1,2.2-7.9c0,0-6-11.3-4.1-20.6
		c0,0,3.6-9.3,0.6-15.7L1273.7,63.2z"/>
	<path fill="none" stroke="#443355" stroke-width="2" stroke-linecap="round" stroke-linejoin="round" stroke-miterlimit="10" d="
		M1289.7,94.7c0,0,11.4,6.9,12.7,52.6c0.1,3-0.6,5.9-2,8.5c-3.1,5.9-9.3,17-16.2,25.8"/>
	<path fill="none" stroke="#443355" stroke-width="2" stroke-linecap="round" stroke-linejoin="round" stroke-miterlimit="10" d="
		M1283.2,117.1c-3.6,6.2-7,18.4,0.3,39.1c0.6,1.6,0.9,3.4,0.9,5.1v0c0,2.4-0.6,4.8-1.6,7l-3.5,7l-6.3,0.7
		c-8.4,0.9-16.9-0.8-24.4-4.8c-3.1-1.7-6.6-3.2-10-4.2c-3.7-1-6-4.7-5.5-8.5c0.7-5.4,2.8-13,8.6-20.7c4.1-5.5,4.7-13,1.1-18.8
		c-0.3-0.5-0.6-0.9-0.9-1.4"/>
	<path fill="none" stroke="#443355" stroke-width="2" stroke-linecap="round" stroke-linejoin="round" stroke-miterlimit="10" d="
		M1258.6,94.7c0,0-6.1,2.3-13.5,7.2c-7.7,5-12.4,13.5-12.4,22.6v0c0,3.5-0.7,7-2.2,10.1c-1,2.3-2.4,5.4-3.7,8.8
		c-4.2,10.8-3,22.9,3.2,32.7v0l5.1,8.7"/>
	<path fill="none" stroke="#443355" stroke-width="1.5" stroke-linecap="round" stroke-linejoin="round" stroke-miterlimit="10" d="
		M1247.1,159.6c0,0,13,12.4,29.2,3.8"/>
	<path fill="none" stroke="#443355" stroke-width="1.5" stroke-linecap="round" stroke-linejoin="round" stroke-miterlimit="10" d="
		M1253.2,152.5c0,0,2.9,8,9.8,9.1"/>
	<path fill="none" stroke="#443355" stroke-width="2" stroke-linecap="round" stroke-linejoin="round" stroke-miterlimit="10" d="
		M1271.4,64c1.2,7.5,0.2,12.7-1.4,16.2c-2,4.4-7.3,6-11.3,3.3C1249,77,1249,64,1249,64v-8.4"/>
	<path fill="none" stroke="#443355" stroke-width="2" stroke-linecap="round" stroke-linejoin="round" stroke-miterlimit="10" d="
		M1258.7,83.9v15.6c0,0-6,11,4.3,11c0,0,11,0.9,10.3-11v0c-2.8-4.9-3.6-11.7-3.7-17.4"/>
	<path fill="#DF74E8" d="M1246.8,52.9c3.3,4.5,11.9,12.6,28.5,10.3l-2.5-6.3v0c0-6.1-4.9-11-11-11h-11.6c-1.4,0-2.8,0.7-3.6,1.9v0
		C1245.7,49.3,1245.7,51.4,1246.8,52.9z"/>
	<path fill="none" stroke="#443355" stroke-width="2" stroke-linecap="round" stroke-linejoin="round" stroke-miterlimit="10" d="
		M1280.5,123.5c0,0,3.4,7,5.9,14.4c2.2,6.6,2.1,13.8-0.2,20.4l-3.5,10.1"/>
	<path fill="none" stroke="#443355" stroke-width="1.5" stroke-linecap="round" stroke-linejoin="round" stroke-miterlimit="10" d="
		M1287.9,150.3c0,0,3.9-5.4,14.4,0"/>
	<path fill="none" stroke="#443355" stroke-width="1.5" stroke-linecap="round" stroke-linejoin="round" stroke-miterlimit="10" d="
		M1226.9,143.4c0,0,4.3-3.6,10.8,0"/>
	<path fill="none" stroke="#443355" stroke-width="1.5" stroke-linecap="round" stroke-linejoin="round" stroke-miterlimit="10" d="
		M1247.1,176.4c0,0-10.2,5.5-12.2,10.5"/>
	<path fill="none" stroke="#443355" stroke-width="1.5" stroke-linecap="round" stroke-linejoin="round" stroke-miterlimit="10" d="
		M1239.5,174.9c0,0,3.9,2.4,4.3,3.2"/>
	<path fill="none" stroke="#443355" stroke-width="1.5" stroke-linecap="round" stroke-linejoin="round" stroke-miterlimit="10" d="
		M1235.6,165.4l6.2,5c2,1.6,3.5,3.7,4.4,6.1"/>
	<path fill="none" stroke="#443355" stroke-width="1.5" stroke-linecap="round" stroke-linejoin="round" stroke-miterlimit="10" d="
		M1276.3,175.5c0,0,7.4,8.4,11.7,9.3"/>
	<path fill="none" stroke="#443355" stroke-width="2" stroke-linecap="round" stroke-linejoin="round" stroke-miterlimit="10" d="
		M1261.5,197.8l-1.4,12.3c-1.3,11.1-4.5,21.9-9.7,31.9"/>
	<path fill="none" stroke="#443355" stroke-width="2" stroke-linecap="round" stroke-linejoin="round" stroke-miterlimit="10" d="
		M1253,236.7c0,0,2.4,33-1.1,54.8v7h-9.6l-1.9-9.2c-2.1-10.4-3.1-20.9-3.1-31.5v-31c0-7.6-1-15.2-2.8-22.7
		c-1.8-7.4-3.6-17.4-2.6-25.1"/>
	<path fill="none" stroke="#443355" stroke-width="2" stroke-linecap="round" stroke-linejoin="round" stroke-miterlimit="10" d="
		M1262.6,195.6c0,0,19,38,23.8,41.6"/>
	<path fill="none" stroke="#443355" stroke-width="2" stroke-linecap="round" stroke-linejoin="round" stroke-miterlimit="10" d="
		M1284.3,234.9l4.7,25.9l8.9,39.9c0,0,5.7,0.4,10.4,0l-2.3-40.5c-0.2-3.7-0.9-7.3-2.1-10.8v0c-1.2-3.6-1.9-7.4-2.1-11.2
		c-0.6-12.7-5-44.1-13.9-60.6"/>
	<path fill="none" stroke="#443355" stroke-width="2" stroke-linecap="round" stroke-linejoin="round" stroke-miterlimit="10" d="
		M1243.4,298.6c0,0,0.2,3.1-0.3,6.2c-0.3,2.7-2.4,4.8-5,5.4c-1.9,0.5-4.1,1.5-5.1,3.6c-0.8,1.8,0.2,3.8,2.1,4.4
		c3,0.9,8.4,1.7,15.1-1.4c1-0.5,1.8-1.4,2.2-2.5l0,0c0.2-0.6,0.2-1.3,0.1-2l-2.6-13.7"/>
	<path fill="#443355" d="M1252.4,314.3c0.2-0.6,0.2-1.3,0.1-2l0-0.2l-2.4,1.1c-2,0.9-4.3,0.6-6-0.6l0,0c-0.9-0.7-1.9-1-3-1.1l-5-0.4
		c-1.2,0.6-2.3,1.5-2.9,2.8c-0.8,1.8,0.2,3.8,2,4.4c3,0.9,8.4,1.7,15.1-1.4C1251.2,316.3,1252,315.4,1252.4,314.3z"/>
	<path fill="none" stroke="#443355" stroke-width="2" stroke-linecap="round" stroke-linejoin="round" stroke-miterlimit="10" d="
		M1308.1,319h5.5c3.7,0,5.7-4.5,3.1-7.1c0,0,0,0-0.1-0.1c-1.2-1.1-3.6-2.4-6.3-3.6c-1.3-0.6-2.2-1.7-2.4-3.1l-0.7-4.3h-7.6l0.6,7.1
		c0.3,2.9,1.2,5.8,2.8,8.2C1304.1,318,1306,319,1308.1,319z"/>
	<path fill="#443355" d="M1316.7,311.9C1316.6,311.9,1316.6,311.9,1316.7,311.9c-0.9-0.8-2.3-1.6-4-2.5l0,0c0,2.1-1.5,3.9-3.5,4.4
		l-1.4,0.3c-1,0.2-2,0.1-2.8-0.4l-4.1-2l0,0c0.5,1.6,1.2,3.1,2,4.4c1.1,1.8,3.1,2.8,5.2,2.8h5.5
		C1317.3,319,1319.3,314.5,1316.7,311.9z"/>
	<path fill="none" stroke="#443355" stroke-width="1.5" stroke-linecap="round" stroke-linejoin="round" stroke-miterlimit="10" d="
		M1261.8,180.4c0.7,3.1,1.3,7.4,1.2,11.9"/>
	<path fill="none" stroke="#443355" stroke-width="1.5" stroke-linecap="round" stroke-linejoin="round" stroke-miterlimit="10" d="
		M1268.9,180.7c-0.3,4-1,9.6-1.9,13.3l-4.1,0.9c-0.7,0.1-1.2,0.7-1.2,1.4l-0.1,3"/>
	<path fill="none" stroke="#443355" stroke-width="2" stroke-linecap="round" stroke-linejoin="round" stroke-miterlimit="10" d="
		M1238.3,167.2l-0.6-3.1c-1.1-6.2-0.6-12.4,1.5-18.5l3.8-10.8"/>
	<path opacity="0.34" fill="#443356" d="M1258.7,90.2c0,0,8.7,1.9,11.1-3.6l-0.6-5.1c0,0-6,5.3-11.4,1.4L1258.7,90.2z"/>
</g>
</svg>
